<mxfile host="app.diagrams.net" modified="2024-05-15T09:30:55.308Z" agent="Mozilla/5.0 (Macintosh; Intel Mac OS X 10_15_7) AppleWebKit/537.36 (KHTML, like Gecko) Chrome/124.0.0.0 Safari/537.36" etag="e3vvN1qQMCyrJ8aocLEa" version="24.4.0" type="github">
  <diagram id="WCuDnnhV1vsW81LaeUw5" name="페이지-2">
    <mxGraphModel dx="1447" dy="717" grid="1" gridSize="10" guides="1" tooltips="1" connect="1" arrows="1" fold="1" page="1" pageScale="1" pageWidth="1169" pageHeight="827" math="0" shadow="0">
      <root>
        <mxCell id="0" />
        <mxCell id="1" parent="0" />
        <mxCell id="kcfCH9ECL4U-9kLb-d-U-85" value="Assets" style="childLayout=tableLayout;recursiveResize=0;strokeColor=#98bf21;fillColor=#A7C942;shadow=1;" vertex="1" parent="1">
          <mxGeometry x="30" y="70" width="670" height="256" as="geometry" />
        </mxCell>
        <mxCell id="kcfCH9ECL4U-9kLb-d-U-86" style="shape=tableRow;horizontal=0;startSize=0;swimlaneHead=0;swimlaneBody=0;top=0;left=0;bottom=0;right=0;dropTarget=0;collapsible=0;recursiveResize=0;expand=0;fontStyle=0;strokeColor=inherit;fillColor=#ffffff;" vertex="1" parent="kcfCH9ECL4U-9kLb-d-U-85">
          <mxGeometry width="670" height="33" as="geometry" />
        </mxCell>
        <mxCell id="kcfCH9ECL4U-9kLb-d-U-87" value="Users" style="connectable=0;recursiveResize=0;strokeColor=inherit;fillColor=#A7C942;align=center;fontStyle=1;fontColor=#FFFFFF;html=1;" vertex="1" parent="kcfCH9ECL4U-9kLb-d-U-86">
          <mxGeometry width="60" height="33" as="geometry">
            <mxRectangle width="60" height="33" as="alternateBounds" />
          </mxGeometry>
        </mxCell>
        <mxCell id="kcfCH9ECL4U-9kLb-d-U-88" value="구분" style="connectable=0;recursiveResize=0;strokeColor=inherit;fillColor=#A7C942;align=center;fontStyle=1;fontColor=#FFFFFF;html=1;" vertex="1" parent="kcfCH9ECL4U-9kLb-d-U-86">
          <mxGeometry x="60" width="130" height="33" as="geometry">
            <mxRectangle width="130" height="33" as="alternateBounds" />
          </mxGeometry>
        </mxCell>
        <mxCell id="kcfCH9ECL4U-9kLb-d-U-89" value="Seq" style="connectable=0;recursiveResize=0;strokeColor=inherit;fillColor=#A7C942;align=center;fontStyle=1;fontColor=#FFFFFF;html=1;" vertex="1" parent="kcfCH9ECL4U-9kLb-d-U-86">
          <mxGeometry x="190" width="120" height="33" as="geometry">
            <mxRectangle width="120" height="33" as="alternateBounds" />
          </mxGeometry>
        </mxCell>
        <mxCell id="kcfCH9ECL4U-9kLb-d-U-106" value="Field Type" style="connectable=0;recursiveResize=0;strokeColor=inherit;fillColor=#A7C942;align=center;fontStyle=1;fontColor=#FFFFFF;html=1;" vertex="1" parent="kcfCH9ECL4U-9kLb-d-U-86">
          <mxGeometry x="310" width="120" height="33" as="geometry">
            <mxRectangle width="120" height="33" as="alternateBounds" />
          </mxGeometry>
        </mxCell>
        <mxCell id="kcfCH9ECL4U-9kLb-d-U-111" value="Constraint" style="connectable=0;recursiveResize=0;strokeColor=inherit;fillColor=#A7C942;align=center;fontStyle=1;fontColor=#FFFFFF;html=1;" vertex="1" parent="kcfCH9ECL4U-9kLb-d-U-86">
          <mxGeometry x="430" width="120" height="33" as="geometry">
            <mxRectangle width="120" height="33" as="alternateBounds" />
          </mxGeometry>
        </mxCell>
        <mxCell id="kcfCH9ECL4U-9kLb-d-U-244" value="NOT NULL" style="connectable=0;recursiveResize=0;strokeColor=inherit;fillColor=#A7C942;align=center;fontStyle=1;fontColor=#FFFFFF;html=1;" vertex="1" parent="kcfCH9ECL4U-9kLb-d-U-86">
          <mxGeometry x="550" width="120" height="33" as="geometry">
            <mxRectangle width="120" height="33" as="alternateBounds" />
          </mxGeometry>
        </mxCell>
        <mxCell id="kcfCH9ECL4U-9kLb-d-U-90" value="" style="shape=tableRow;horizontal=0;startSize=0;swimlaneHead=0;swimlaneBody=0;top=0;left=0;bottom=0;right=0;dropTarget=0;collapsible=0;recursiveResize=0;expand=0;fontStyle=0;strokeColor=inherit;fillColor=#ffffff;" vertex="1" parent="kcfCH9ECL4U-9kLb-d-U-85">
          <mxGeometry y="33" width="670" height="32" as="geometry" />
        </mxCell>
        <mxCell id="kcfCH9ECL4U-9kLb-d-U-91" value="PK" style="connectable=0;recursiveResize=0;strokeColor=inherit;fillColor=inherit;align=center;whiteSpace=wrap;html=1;" vertex="1" parent="kcfCH9ECL4U-9kLb-d-U-90">
          <mxGeometry width="60" height="32" as="geometry">
            <mxRectangle width="60" height="32" as="alternateBounds" />
          </mxGeometry>
        </mxCell>
        <mxCell id="kcfCH9ECL4U-9kLb-d-U-92" value="유저테이블 아이디" style="connectable=0;recursiveResize=0;strokeColor=inherit;fillColor=inherit;align=center;whiteSpace=wrap;html=1;" vertex="1" parent="kcfCH9ECL4U-9kLb-d-U-90">
          <mxGeometry x="60" width="130" height="32" as="geometry">
            <mxRectangle width="130" height="32" as="alternateBounds" />
          </mxGeometry>
        </mxCell>
        <mxCell id="kcfCH9ECL4U-9kLb-d-U-93" value="user_id" style="connectable=0;recursiveResize=0;strokeColor=inherit;fillColor=inherit;align=center;whiteSpace=wrap;html=1;" vertex="1" parent="kcfCH9ECL4U-9kLb-d-U-90">
          <mxGeometry x="190" width="120" height="32" as="geometry">
            <mxRectangle width="120" height="32" as="alternateBounds" />
          </mxGeometry>
        </mxCell>
        <mxCell id="kcfCH9ECL4U-9kLb-d-U-107" style="connectable=0;recursiveResize=0;strokeColor=inherit;fillColor=inherit;align=center;whiteSpace=wrap;html=1;" vertex="1" parent="kcfCH9ECL4U-9kLb-d-U-90">
          <mxGeometry x="310" width="120" height="32" as="geometry">
            <mxRectangle width="120" height="32" as="alternateBounds" />
          </mxGeometry>
        </mxCell>
        <mxCell id="kcfCH9ECL4U-9kLb-d-U-112" style="connectable=0;recursiveResize=0;strokeColor=inherit;fillColor=inherit;align=center;whiteSpace=wrap;html=1;" vertex="1" parent="kcfCH9ECL4U-9kLb-d-U-90">
          <mxGeometry x="430" width="120" height="32" as="geometry">
            <mxRectangle width="120" height="32" as="alternateBounds" />
          </mxGeometry>
        </mxCell>
        <mxCell id="kcfCH9ECL4U-9kLb-d-U-245" style="connectable=0;recursiveResize=0;strokeColor=inherit;fillColor=inherit;align=center;whiteSpace=wrap;html=1;" vertex="1" parent="kcfCH9ECL4U-9kLb-d-U-90">
          <mxGeometry x="550" width="120" height="32" as="geometry">
            <mxRectangle width="120" height="32" as="alternateBounds" />
          </mxGeometry>
        </mxCell>
        <mxCell id="kcfCH9ECL4U-9kLb-d-U-256" style="shape=tableRow;horizontal=0;startSize=0;swimlaneHead=0;swimlaneBody=0;top=0;left=0;bottom=0;right=0;dropTarget=0;collapsible=0;recursiveResize=0;expand=0;fontStyle=1;strokeColor=inherit;fillColor=#EAF2D3;" vertex="1" parent="kcfCH9ECL4U-9kLb-d-U-85">
          <mxGeometry y="65" width="670" height="34" as="geometry" />
        </mxCell>
        <mxCell id="kcfCH9ECL4U-9kLb-d-U-257" value="FK" style="connectable=0;recursiveResize=0;strokeColor=inherit;fillColor=inherit;whiteSpace=wrap;html=1;" vertex="1" parent="kcfCH9ECL4U-9kLb-d-U-256">
          <mxGeometry width="60" height="34" as="geometry">
            <mxRectangle width="60" height="34" as="alternateBounds" />
          </mxGeometry>
        </mxCell>
        <mxCell id="kcfCH9ECL4U-9kLb-d-U-258" value="위치테이블 아이디" style="connectable=0;recursiveResize=0;strokeColor=inherit;fillColor=inherit;whiteSpace=wrap;html=1;" vertex="1" parent="kcfCH9ECL4U-9kLb-d-U-256">
          <mxGeometry x="60" width="130" height="34" as="geometry">
            <mxRectangle width="130" height="34" as="alternateBounds" />
          </mxGeometry>
        </mxCell>
        <mxCell id="kcfCH9ECL4U-9kLb-d-U-259" value="location_id" style="connectable=0;recursiveResize=0;strokeColor=inherit;fillColor=inherit;whiteSpace=wrap;html=1;" vertex="1" parent="kcfCH9ECL4U-9kLb-d-U-256">
          <mxGeometry x="190" width="120" height="34" as="geometry">
            <mxRectangle width="120" height="34" as="alternateBounds" />
          </mxGeometry>
        </mxCell>
        <mxCell id="kcfCH9ECL4U-9kLb-d-U-260" value="INT" style="connectable=0;recursiveResize=0;strokeColor=inherit;fillColor=inherit;whiteSpace=wrap;html=1;" vertex="1" parent="kcfCH9ECL4U-9kLb-d-U-256">
          <mxGeometry x="310" width="120" height="34" as="geometry">
            <mxRectangle width="120" height="34" as="alternateBounds" />
          </mxGeometry>
        </mxCell>
        <mxCell id="kcfCH9ECL4U-9kLb-d-U-261" value="STR" style="connectable=0;recursiveResize=0;strokeColor=inherit;fillColor=inherit;whiteSpace=wrap;html=1;" vertex="1" parent="kcfCH9ECL4U-9kLb-d-U-256">
          <mxGeometry x="430" width="120" height="34" as="geometry">
            <mxRectangle width="120" height="34" as="alternateBounds" />
          </mxGeometry>
        </mxCell>
        <mxCell id="kcfCH9ECL4U-9kLb-d-U-262" style="connectable=0;recursiveResize=0;strokeColor=inherit;fillColor=inherit;whiteSpace=wrap;html=1;" vertex="1" parent="kcfCH9ECL4U-9kLb-d-U-256">
          <mxGeometry x="550" width="120" height="34" as="geometry">
            <mxRectangle width="120" height="34" as="alternateBounds" />
          </mxGeometry>
        </mxCell>
        <mxCell id="kcfCH9ECL4U-9kLb-d-U-249" style="shape=tableRow;horizontal=0;startSize=0;swimlaneHead=0;swimlaneBody=0;top=0;left=0;bottom=0;right=0;dropTarget=0;collapsible=0;recursiveResize=0;expand=0;fontStyle=1;strokeColor=inherit;fillColor=#EAF2D3;" vertex="1" parent="kcfCH9ECL4U-9kLb-d-U-85">
          <mxGeometry y="99" width="670" height="31" as="geometry" />
        </mxCell>
        <mxCell id="kcfCH9ECL4U-9kLb-d-U-250" value="" style="connectable=0;recursiveResize=0;strokeColor=inherit;fillColor=inherit;whiteSpace=wrap;html=1;" vertex="1" parent="kcfCH9ECL4U-9kLb-d-U-249">
          <mxGeometry width="60" height="31" as="geometry">
            <mxRectangle width="60" height="31" as="alternateBounds" />
          </mxGeometry>
        </mxCell>
        <mxCell id="kcfCH9ECL4U-9kLb-d-U-251" value="사용자_아이디" style="connectable=0;recursiveResize=0;strokeColor=inherit;fillColor=inherit;whiteSpace=wrap;html=1;" vertex="1" parent="kcfCH9ECL4U-9kLb-d-U-249">
          <mxGeometry x="60" width="130" height="31" as="geometry">
            <mxRectangle width="130" height="31" as="alternateBounds" />
          </mxGeometry>
        </mxCell>
        <mxCell id="kcfCH9ECL4U-9kLb-d-U-252" value="username" style="connectable=0;recursiveResize=0;strokeColor=inherit;fillColor=inherit;whiteSpace=wrap;html=1;" vertex="1" parent="kcfCH9ECL4U-9kLb-d-U-249">
          <mxGeometry x="190" width="120" height="31" as="geometry">
            <mxRectangle width="120" height="31" as="alternateBounds" />
          </mxGeometry>
        </mxCell>
        <mxCell id="kcfCH9ECL4U-9kLb-d-U-253" value="VARCHAR(50)" style="connectable=0;recursiveResize=0;strokeColor=inherit;fillColor=inherit;whiteSpace=wrap;html=1;" vertex="1" parent="kcfCH9ECL4U-9kLb-d-U-249">
          <mxGeometry x="310" width="120" height="31" as="geometry">
            <mxRectangle width="120" height="31" as="alternateBounds" />
          </mxGeometry>
        </mxCell>
        <mxCell id="kcfCH9ECL4U-9kLb-d-U-254" value="Unique" style="connectable=0;recursiveResize=0;strokeColor=inherit;fillColor=inherit;whiteSpace=wrap;html=1;" vertex="1" parent="kcfCH9ECL4U-9kLb-d-U-249">
          <mxGeometry x="430" width="120" height="31" as="geometry">
            <mxRectangle width="120" height="31" as="alternateBounds" />
          </mxGeometry>
        </mxCell>
        <mxCell id="kcfCH9ECL4U-9kLb-d-U-255" style="connectable=0;recursiveResize=0;strokeColor=inherit;fillColor=inherit;whiteSpace=wrap;html=1;" vertex="1" parent="kcfCH9ECL4U-9kLb-d-U-249">
          <mxGeometry x="550" width="120" height="31" as="geometry">
            <mxRectangle width="120" height="31" as="alternateBounds" />
          </mxGeometry>
        </mxCell>
        <mxCell id="kcfCH9ECL4U-9kLb-d-U-94" value="" style="shape=tableRow;horizontal=0;startSize=0;swimlaneHead=0;swimlaneBody=0;top=0;left=0;bottom=0;right=0;dropTarget=0;collapsible=0;recursiveResize=0;expand=0;fontStyle=1;strokeColor=inherit;fillColor=#EAF2D3;" vertex="1" parent="kcfCH9ECL4U-9kLb-d-U-85">
          <mxGeometry y="130" width="670" height="31" as="geometry" />
        </mxCell>
        <mxCell id="kcfCH9ECL4U-9kLb-d-U-95" value="" style="connectable=0;recursiveResize=0;strokeColor=inherit;fillColor=inherit;whiteSpace=wrap;html=1;" vertex="1" parent="kcfCH9ECL4U-9kLb-d-U-94">
          <mxGeometry width="60" height="31" as="geometry">
            <mxRectangle width="60" height="31" as="alternateBounds" />
          </mxGeometry>
        </mxCell>
        <mxCell id="kcfCH9ECL4U-9kLb-d-U-96" value="비밀번호" style="connectable=0;recursiveResize=0;strokeColor=inherit;fillColor=inherit;whiteSpace=wrap;html=1;" vertex="1" parent="kcfCH9ECL4U-9kLb-d-U-94">
          <mxGeometry x="60" width="130" height="31" as="geometry">
            <mxRectangle width="130" height="31" as="alternateBounds" />
          </mxGeometry>
        </mxCell>
        <mxCell id="kcfCH9ECL4U-9kLb-d-U-97" value="password" style="connectable=0;recursiveResize=0;strokeColor=inherit;fillColor=inherit;whiteSpace=wrap;html=1;" vertex="1" parent="kcfCH9ECL4U-9kLb-d-U-94">
          <mxGeometry x="190" width="120" height="31" as="geometry">
            <mxRectangle width="120" height="31" as="alternateBounds" />
          </mxGeometry>
        </mxCell>
        <mxCell id="kcfCH9ECL4U-9kLb-d-U-108" value="VARCHAR(50)" style="connectable=0;recursiveResize=0;strokeColor=inherit;fillColor=inherit;whiteSpace=wrap;html=1;" vertex="1" parent="kcfCH9ECL4U-9kLb-d-U-94">
          <mxGeometry x="310" width="120" height="31" as="geometry">
            <mxRectangle width="120" height="31" as="alternateBounds" />
          </mxGeometry>
        </mxCell>
        <mxCell id="kcfCH9ECL4U-9kLb-d-U-113" value="Encrypted" style="connectable=0;recursiveResize=0;strokeColor=inherit;fillColor=inherit;whiteSpace=wrap;html=1;" vertex="1" parent="kcfCH9ECL4U-9kLb-d-U-94">
          <mxGeometry x="430" width="120" height="31" as="geometry">
            <mxRectangle width="120" height="31" as="alternateBounds" />
          </mxGeometry>
        </mxCell>
        <mxCell id="kcfCH9ECL4U-9kLb-d-U-246" style="connectable=0;recursiveResize=0;strokeColor=inherit;fillColor=inherit;whiteSpace=wrap;html=1;" vertex="1" parent="kcfCH9ECL4U-9kLb-d-U-94">
          <mxGeometry x="550" width="120" height="31" as="geometry">
            <mxRectangle width="120" height="31" as="alternateBounds" />
          </mxGeometry>
        </mxCell>
        <mxCell id="kcfCH9ECL4U-9kLb-d-U-102" value="" style="shape=tableRow;horizontal=0;startSize=0;swimlaneHead=0;swimlaneBody=0;top=0;left=0;bottom=0;right=0;dropTarget=0;collapsible=0;recursiveResize=0;expand=0;fontStyle=1;strokeColor=inherit;fillColor=#EAF2D3;" vertex="1" parent="kcfCH9ECL4U-9kLb-d-U-85">
          <mxGeometry y="161" width="670" height="31" as="geometry" />
        </mxCell>
        <mxCell id="kcfCH9ECL4U-9kLb-d-U-103" value="" style="connectable=0;recursiveResize=0;strokeColor=inherit;fillColor=inherit;whiteSpace=wrap;html=1;" vertex="1" parent="kcfCH9ECL4U-9kLb-d-U-102">
          <mxGeometry width="60" height="31" as="geometry">
            <mxRectangle width="60" height="31" as="alternateBounds" />
          </mxGeometry>
        </mxCell>
        <mxCell id="kcfCH9ECL4U-9kLb-d-U-104" value="이메일" style="connectable=0;recursiveResize=0;strokeColor=inherit;fillColor=inherit;whiteSpace=wrap;html=1;" vertex="1" parent="kcfCH9ECL4U-9kLb-d-U-102">
          <mxGeometry x="60" width="130" height="31" as="geometry">
            <mxRectangle width="130" height="31" as="alternateBounds" />
          </mxGeometry>
        </mxCell>
        <mxCell id="kcfCH9ECL4U-9kLb-d-U-105" value="email" style="connectable=0;recursiveResize=0;strokeColor=inherit;fillColor=inherit;whiteSpace=wrap;html=1;" vertex="1" parent="kcfCH9ECL4U-9kLb-d-U-102">
          <mxGeometry x="190" width="120" height="31" as="geometry">
            <mxRectangle width="120" height="31" as="alternateBounds" />
          </mxGeometry>
        </mxCell>
        <mxCell id="kcfCH9ECL4U-9kLb-d-U-110" value="Email" style="connectable=0;recursiveResize=0;strokeColor=inherit;fillColor=inherit;whiteSpace=wrap;html=1;" vertex="1" parent="kcfCH9ECL4U-9kLb-d-U-102">
          <mxGeometry x="310" width="120" height="31" as="geometry">
            <mxRectangle width="120" height="31" as="alternateBounds" />
          </mxGeometry>
        </mxCell>
        <mxCell id="kcfCH9ECL4U-9kLb-d-U-115" style="connectable=0;recursiveResize=0;strokeColor=inherit;fillColor=inherit;whiteSpace=wrap;html=1;" vertex="1" parent="kcfCH9ECL4U-9kLb-d-U-102">
          <mxGeometry x="430" width="120" height="31" as="geometry">
            <mxRectangle width="120" height="31" as="alternateBounds" />
          </mxGeometry>
        </mxCell>
        <mxCell id="kcfCH9ECL4U-9kLb-d-U-248" style="connectable=0;recursiveResize=0;strokeColor=inherit;fillColor=inherit;whiteSpace=wrap;html=1;" vertex="1" parent="kcfCH9ECL4U-9kLb-d-U-102">
          <mxGeometry x="550" width="120" height="31" as="geometry">
            <mxRectangle width="120" height="31" as="alternateBounds" />
          </mxGeometry>
        </mxCell>
        <mxCell id="kcfCH9ECL4U-9kLb-d-U-263" style="shape=tableRow;horizontal=0;startSize=0;swimlaneHead=0;swimlaneBody=0;top=0;left=0;bottom=0;right=0;dropTarget=0;collapsible=0;recursiveResize=0;expand=0;fontStyle=1;strokeColor=inherit;fillColor=#EAF2D3;" vertex="1" parent="kcfCH9ECL4U-9kLb-d-U-85">
          <mxGeometry y="192" width="670" height="31" as="geometry" />
        </mxCell>
        <mxCell id="kcfCH9ECL4U-9kLb-d-U-264" style="connectable=0;recursiveResize=0;strokeColor=inherit;fillColor=inherit;whiteSpace=wrap;html=1;" vertex="1" parent="kcfCH9ECL4U-9kLb-d-U-263">
          <mxGeometry width="60" height="31" as="geometry">
            <mxRectangle width="60" height="31" as="alternateBounds" />
          </mxGeometry>
        </mxCell>
        <mxCell id="kcfCH9ECL4U-9kLb-d-U-265" value="가입일자" style="connectable=0;recursiveResize=0;strokeColor=inherit;fillColor=inherit;whiteSpace=wrap;html=1;" vertex="1" parent="kcfCH9ECL4U-9kLb-d-U-263">
          <mxGeometry x="60" width="130" height="31" as="geometry">
            <mxRectangle width="130" height="31" as="alternateBounds" />
          </mxGeometry>
        </mxCell>
        <mxCell id="kcfCH9ECL4U-9kLb-d-U-266" value="created" style="connectable=0;recursiveResize=0;strokeColor=inherit;fillColor=inherit;whiteSpace=wrap;html=1;" vertex="1" parent="kcfCH9ECL4U-9kLb-d-U-263">
          <mxGeometry x="190" width="120" height="31" as="geometry">
            <mxRectangle width="120" height="31" as="alternateBounds" />
          </mxGeometry>
        </mxCell>
        <mxCell id="kcfCH9ECL4U-9kLb-d-U-267" value="Datetime" style="connectable=0;recursiveResize=0;strokeColor=inherit;fillColor=inherit;whiteSpace=wrap;html=1;" vertex="1" parent="kcfCH9ECL4U-9kLb-d-U-263">
          <mxGeometry x="310" width="120" height="31" as="geometry">
            <mxRectangle width="120" height="31" as="alternateBounds" />
          </mxGeometry>
        </mxCell>
        <mxCell id="kcfCH9ECL4U-9kLb-d-U-268" value="Auto_now_add" style="connectable=0;recursiveResize=0;strokeColor=inherit;fillColor=inherit;whiteSpace=wrap;html=1;" vertex="1" parent="kcfCH9ECL4U-9kLb-d-U-263">
          <mxGeometry x="430" width="120" height="31" as="geometry">
            <mxRectangle width="120" height="31" as="alternateBounds" />
          </mxGeometry>
        </mxCell>
        <mxCell id="kcfCH9ECL4U-9kLb-d-U-269" style="connectable=0;recursiveResize=0;strokeColor=inherit;fillColor=inherit;whiteSpace=wrap;html=1;" vertex="1" parent="kcfCH9ECL4U-9kLb-d-U-263">
          <mxGeometry x="550" width="120" height="31" as="geometry">
            <mxRectangle width="120" height="31" as="alternateBounds" />
          </mxGeometry>
        </mxCell>
        <mxCell id="kcfCH9ECL4U-9kLb-d-U-98" value="" style="shape=tableRow;horizontal=0;startSize=0;swimlaneHead=0;swimlaneBody=0;top=0;left=0;bottom=0;right=0;dropTarget=0;collapsible=0;recursiveResize=0;expand=0;fontStyle=0;strokeColor=inherit;fillColor=#ffffff;" vertex="1" parent="kcfCH9ECL4U-9kLb-d-U-85">
          <mxGeometry y="223" width="670" height="33" as="geometry" />
        </mxCell>
        <mxCell id="kcfCH9ECL4U-9kLb-d-U-99" value="" style="connectable=0;recursiveResize=0;strokeColor=inherit;fillColor=inherit;fontStyle=0;align=center;whiteSpace=wrap;html=1;" vertex="1" parent="kcfCH9ECL4U-9kLb-d-U-98">
          <mxGeometry width="60" height="33" as="geometry">
            <mxRectangle width="60" height="33" as="alternateBounds" />
          </mxGeometry>
        </mxCell>
        <mxCell id="kcfCH9ECL4U-9kLb-d-U-100" value="수정일자" style="connectable=0;recursiveResize=0;strokeColor=inherit;fillColor=inherit;fontStyle=0;align=center;whiteSpace=wrap;html=1;" vertex="1" parent="kcfCH9ECL4U-9kLb-d-U-98">
          <mxGeometry x="60" width="130" height="33" as="geometry">
            <mxRectangle width="130" height="33" as="alternateBounds" />
          </mxGeometry>
        </mxCell>
        <mxCell id="kcfCH9ECL4U-9kLb-d-U-101" value="updated" style="connectable=0;recursiveResize=0;strokeColor=inherit;fillColor=inherit;fontStyle=0;align=center;whiteSpace=wrap;html=1;" vertex="1" parent="kcfCH9ECL4U-9kLb-d-U-98">
          <mxGeometry x="190" width="120" height="33" as="geometry">
            <mxRectangle width="120" height="33" as="alternateBounds" />
          </mxGeometry>
        </mxCell>
        <mxCell id="kcfCH9ECL4U-9kLb-d-U-109" value="Datetime" style="connectable=0;recursiveResize=0;strokeColor=inherit;fillColor=inherit;fontStyle=0;align=center;whiteSpace=wrap;html=1;" vertex="1" parent="kcfCH9ECL4U-9kLb-d-U-98">
          <mxGeometry x="310" width="120" height="33" as="geometry">
            <mxRectangle width="120" height="33" as="alternateBounds" />
          </mxGeometry>
        </mxCell>
        <mxCell id="kcfCH9ECL4U-9kLb-d-U-114" value="Auto_now" style="connectable=0;recursiveResize=0;strokeColor=inherit;fillColor=inherit;fontStyle=0;align=center;whiteSpace=wrap;html=1;" vertex="1" parent="kcfCH9ECL4U-9kLb-d-U-98">
          <mxGeometry x="430" width="120" height="33" as="geometry">
            <mxRectangle width="120" height="33" as="alternateBounds" />
          </mxGeometry>
        </mxCell>
        <mxCell id="kcfCH9ECL4U-9kLb-d-U-247" style="connectable=0;recursiveResize=0;strokeColor=inherit;fillColor=inherit;fontStyle=0;align=center;whiteSpace=wrap;html=1;" vertex="1" parent="kcfCH9ECL4U-9kLb-d-U-98">
          <mxGeometry x="550" width="120" height="33" as="geometry">
            <mxRectangle width="120" height="33" as="alternateBounds" />
          </mxGeometry>
        </mxCell>
        <mxCell id="kcfCH9ECL4U-9kLb-d-U-291" value="Assets" style="childLayout=tableLayout;recursiveResize=0;strokeColor=#98bf21;fillColor=#A7C942;shadow=1;" vertex="1" parent="1">
          <mxGeometry x="30" y="750" width="670" height="96" as="geometry" />
        </mxCell>
        <mxCell id="kcfCH9ECL4U-9kLb-d-U-292" style="shape=tableRow;horizontal=0;startSize=0;swimlaneHead=0;swimlaneBody=0;top=0;left=0;bottom=0;right=0;dropTarget=0;collapsible=0;recursiveResize=0;expand=0;fontStyle=0;strokeColor=inherit;fillColor=#ffffff;" vertex="1" parent="kcfCH9ECL4U-9kLb-d-U-291">
          <mxGeometry width="670" height="33" as="geometry" />
        </mxCell>
        <mxCell id="kcfCH9ECL4U-9kLb-d-U-293" value="Location" style="connectable=0;recursiveResize=0;strokeColor=inherit;fillColor=#A7C942;align=center;fontStyle=1;fontColor=#FFFFFF;html=1;" vertex="1" parent="kcfCH9ECL4U-9kLb-d-U-292">
          <mxGeometry width="60" height="33" as="geometry">
            <mxRectangle width="60" height="33" as="alternateBounds" />
          </mxGeometry>
        </mxCell>
        <mxCell id="kcfCH9ECL4U-9kLb-d-U-294" value="구분" style="connectable=0;recursiveResize=0;strokeColor=inherit;fillColor=#A7C942;align=center;fontStyle=1;fontColor=#FFFFFF;html=1;" vertex="1" parent="kcfCH9ECL4U-9kLb-d-U-292">
          <mxGeometry x="60" width="130" height="33" as="geometry">
            <mxRectangle width="130" height="33" as="alternateBounds" />
          </mxGeometry>
        </mxCell>
        <mxCell id="kcfCH9ECL4U-9kLb-d-U-295" value="Seq" style="connectable=0;recursiveResize=0;strokeColor=inherit;fillColor=#A7C942;align=center;fontStyle=1;fontColor=#FFFFFF;html=1;" vertex="1" parent="kcfCH9ECL4U-9kLb-d-U-292">
          <mxGeometry x="190" width="120" height="33" as="geometry">
            <mxRectangle width="120" height="33" as="alternateBounds" />
          </mxGeometry>
        </mxCell>
        <mxCell id="kcfCH9ECL4U-9kLb-d-U-296" value="Field Type" style="connectable=0;recursiveResize=0;strokeColor=inherit;fillColor=#A7C942;align=center;fontStyle=1;fontColor=#FFFFFF;html=1;" vertex="1" parent="kcfCH9ECL4U-9kLb-d-U-292">
          <mxGeometry x="310" width="120" height="33" as="geometry">
            <mxRectangle width="120" height="33" as="alternateBounds" />
          </mxGeometry>
        </mxCell>
        <mxCell id="kcfCH9ECL4U-9kLb-d-U-297" value="Constraint" style="connectable=0;recursiveResize=0;strokeColor=inherit;fillColor=#A7C942;align=center;fontStyle=1;fontColor=#FFFFFF;html=1;" vertex="1" parent="kcfCH9ECL4U-9kLb-d-U-292">
          <mxGeometry x="430" width="120" height="33" as="geometry">
            <mxRectangle width="120" height="33" as="alternateBounds" />
          </mxGeometry>
        </mxCell>
        <mxCell id="kcfCH9ECL4U-9kLb-d-U-298" value="NOT NULL" style="connectable=0;recursiveResize=0;strokeColor=inherit;fillColor=#A7C942;align=center;fontStyle=1;fontColor=#FFFFFF;html=1;" vertex="1" parent="kcfCH9ECL4U-9kLb-d-U-292">
          <mxGeometry x="550" width="120" height="33" as="geometry">
            <mxRectangle width="120" height="33" as="alternateBounds" />
          </mxGeometry>
        </mxCell>
        <mxCell id="kcfCH9ECL4U-9kLb-d-U-299" value="" style="shape=tableRow;horizontal=0;startSize=0;swimlaneHead=0;swimlaneBody=0;top=0;left=0;bottom=0;right=0;dropTarget=0;collapsible=0;recursiveResize=0;expand=0;fontStyle=0;strokeColor=inherit;fillColor=#ffffff;" vertex="1" parent="kcfCH9ECL4U-9kLb-d-U-291">
          <mxGeometry y="33" width="670" height="32" as="geometry" />
        </mxCell>
        <mxCell id="kcfCH9ECL4U-9kLb-d-U-300" value="PK" style="connectable=0;recursiveResize=0;strokeColor=inherit;fillColor=inherit;align=center;whiteSpace=wrap;html=1;" vertex="1" parent="kcfCH9ECL4U-9kLb-d-U-299">
          <mxGeometry width="60" height="32" as="geometry">
            <mxRectangle width="60" height="32" as="alternateBounds" />
          </mxGeometry>
        </mxCell>
        <mxCell id="kcfCH9ECL4U-9kLb-d-U-301" value="위치테이블 아이디" style="connectable=0;recursiveResize=0;strokeColor=inherit;fillColor=inherit;align=center;whiteSpace=wrap;html=1;" vertex="1" parent="kcfCH9ECL4U-9kLb-d-U-299">
          <mxGeometry x="60" width="130" height="32" as="geometry">
            <mxRectangle width="130" height="32" as="alternateBounds" />
          </mxGeometry>
        </mxCell>
        <mxCell id="kcfCH9ECL4U-9kLb-d-U-302" value="location_id" style="connectable=0;recursiveResize=0;strokeColor=inherit;fillColor=inherit;align=center;whiteSpace=wrap;html=1;" vertex="1" parent="kcfCH9ECL4U-9kLb-d-U-299">
          <mxGeometry x="190" width="120" height="32" as="geometry">
            <mxRectangle width="120" height="32" as="alternateBounds" />
          </mxGeometry>
        </mxCell>
        <mxCell id="kcfCH9ECL4U-9kLb-d-U-303" value="INT" style="connectable=0;recursiveResize=0;strokeColor=inherit;fillColor=inherit;align=center;whiteSpace=wrap;html=1;" vertex="1" parent="kcfCH9ECL4U-9kLb-d-U-299">
          <mxGeometry x="310" width="120" height="32" as="geometry">
            <mxRectangle width="120" height="32" as="alternateBounds" />
          </mxGeometry>
        </mxCell>
        <mxCell id="kcfCH9ECL4U-9kLb-d-U-304" style="connectable=0;recursiveResize=0;strokeColor=inherit;fillColor=inherit;align=center;whiteSpace=wrap;html=1;" vertex="1" parent="kcfCH9ECL4U-9kLb-d-U-299">
          <mxGeometry x="430" width="120" height="32" as="geometry">
            <mxRectangle width="120" height="32" as="alternateBounds" />
          </mxGeometry>
        </mxCell>
        <mxCell id="kcfCH9ECL4U-9kLb-d-U-305" style="connectable=0;recursiveResize=0;strokeColor=inherit;fillColor=inherit;align=center;whiteSpace=wrap;html=1;" vertex="1" parent="kcfCH9ECL4U-9kLb-d-U-299">
          <mxGeometry x="550" width="120" height="32" as="geometry">
            <mxRectangle width="120" height="32" as="alternateBounds" />
          </mxGeometry>
        </mxCell>
        <mxCell id="kcfCH9ECL4U-9kLb-d-U-306" value="" style="shape=tableRow;horizontal=0;startSize=0;swimlaneHead=0;swimlaneBody=0;top=0;left=0;bottom=0;right=0;dropTarget=0;collapsible=0;recursiveResize=0;expand=0;fontStyle=1;strokeColor=inherit;fillColor=#EAF2D3;" vertex="1" parent="kcfCH9ECL4U-9kLb-d-U-291">
          <mxGeometry y="65" width="670" height="31" as="geometry" />
        </mxCell>
        <mxCell id="kcfCH9ECL4U-9kLb-d-U-307" value="" style="connectable=0;recursiveResize=0;strokeColor=inherit;fillColor=inherit;whiteSpace=wrap;html=1;" vertex="1" parent="kcfCH9ECL4U-9kLb-d-U-306">
          <mxGeometry width="60" height="31" as="geometry">
            <mxRectangle width="60" height="31" as="alternateBounds" />
          </mxGeometry>
        </mxCell>
        <mxCell id="kcfCH9ECL4U-9kLb-d-U-308" value="주소" style="connectable=0;recursiveResize=0;strokeColor=inherit;fillColor=inherit;whiteSpace=wrap;html=1;" vertex="1" parent="kcfCH9ECL4U-9kLb-d-U-306">
          <mxGeometry x="60" width="130" height="31" as="geometry">
            <mxRectangle width="130" height="31" as="alternateBounds" />
          </mxGeometry>
        </mxCell>
        <mxCell id="kcfCH9ECL4U-9kLb-d-U-309" value="store_name" style="connectable=0;recursiveResize=0;strokeColor=inherit;fillColor=inherit;whiteSpace=wrap;html=1;" vertex="1" parent="kcfCH9ECL4U-9kLb-d-U-306">
          <mxGeometry x="190" width="120" height="31" as="geometry">
            <mxRectangle width="120" height="31" as="alternateBounds" />
          </mxGeometry>
        </mxCell>
        <mxCell id="kcfCH9ECL4U-9kLb-d-U-310" value="TextField" style="connectable=0;recursiveResize=0;strokeColor=inherit;fillColor=inherit;whiteSpace=wrap;html=1;" vertex="1" parent="kcfCH9ECL4U-9kLb-d-U-306">
          <mxGeometry x="310" width="120" height="31" as="geometry">
            <mxRectangle width="120" height="31" as="alternateBounds" />
          </mxGeometry>
        </mxCell>
        <mxCell id="kcfCH9ECL4U-9kLb-d-U-311" style="connectable=0;recursiveResize=0;strokeColor=inherit;fillColor=inherit;whiteSpace=wrap;html=1;" vertex="1" parent="kcfCH9ECL4U-9kLb-d-U-306">
          <mxGeometry x="430" width="120" height="31" as="geometry">
            <mxRectangle width="120" height="31" as="alternateBounds" />
          </mxGeometry>
        </mxCell>
        <mxCell id="kcfCH9ECL4U-9kLb-d-U-312" style="connectable=0;recursiveResize=0;strokeColor=inherit;fillColor=inherit;whiteSpace=wrap;html=1;" vertex="1" parent="kcfCH9ECL4U-9kLb-d-U-306">
          <mxGeometry x="550" width="120" height="31" as="geometry">
            <mxRectangle width="120" height="31" as="alternateBounds" />
          </mxGeometry>
        </mxCell>
        <mxCell id="kcfCH9ECL4U-9kLb-d-U-348" value="Assets" style="childLayout=tableLayout;recursiveResize=0;strokeColor=#98bf21;fillColor=#A7C942;shadow=1;" vertex="1" parent="1">
          <mxGeometry x="790" y="660" width="690" height="96" as="geometry" />
        </mxCell>
        <mxCell id="kcfCH9ECL4U-9kLb-d-U-349" style="shape=tableRow;horizontal=0;startSize=0;swimlaneHead=0;swimlaneBody=0;top=0;left=0;bottom=0;right=0;dropTarget=0;collapsible=0;recursiveResize=0;expand=0;fontStyle=0;strokeColor=inherit;fillColor=#ffffff;" vertex="1" parent="kcfCH9ECL4U-9kLb-d-U-348">
          <mxGeometry width="690" height="33" as="geometry" />
        </mxCell>
        <mxCell id="kcfCH9ECL4U-9kLb-d-U-350" value="Stores" style="connectable=0;recursiveResize=0;strokeColor=inherit;fillColor=#A7C942;align=center;fontStyle=1;fontColor=#FFFFFF;html=1;" vertex="1" parent="kcfCH9ECL4U-9kLb-d-U-349">
          <mxGeometry width="62" height="33" as="geometry">
            <mxRectangle width="62" height="33" as="alternateBounds" />
          </mxGeometry>
        </mxCell>
        <mxCell id="kcfCH9ECL4U-9kLb-d-U-351" value="구분" style="connectable=0;recursiveResize=0;strokeColor=inherit;fillColor=#A7C942;align=center;fontStyle=1;fontColor=#FFFFFF;html=1;" vertex="1" parent="kcfCH9ECL4U-9kLb-d-U-349">
          <mxGeometry x="62" width="134" height="33" as="geometry">
            <mxRectangle width="134" height="33" as="alternateBounds" />
          </mxGeometry>
        </mxCell>
        <mxCell id="kcfCH9ECL4U-9kLb-d-U-352" value="Seq" style="connectable=0;recursiveResize=0;strokeColor=inherit;fillColor=#A7C942;align=center;fontStyle=1;fontColor=#FFFFFF;html=1;" vertex="1" parent="kcfCH9ECL4U-9kLb-d-U-349">
          <mxGeometry x="196" width="123" height="33" as="geometry">
            <mxRectangle width="123" height="33" as="alternateBounds" />
          </mxGeometry>
        </mxCell>
        <mxCell id="kcfCH9ECL4U-9kLb-d-U-353" value="Field Type" style="connectable=0;recursiveResize=0;strokeColor=inherit;fillColor=#A7C942;align=center;fontStyle=1;fontColor=#FFFFFF;html=1;" vertex="1" parent="kcfCH9ECL4U-9kLb-d-U-349">
          <mxGeometry x="319" width="124" height="33" as="geometry">
            <mxRectangle width="124" height="33" as="alternateBounds" />
          </mxGeometry>
        </mxCell>
        <mxCell id="kcfCH9ECL4U-9kLb-d-U-354" value="Constraint" style="connectable=0;recursiveResize=0;strokeColor=inherit;fillColor=#A7C942;align=center;fontStyle=1;fontColor=#FFFFFF;html=1;" vertex="1" parent="kcfCH9ECL4U-9kLb-d-U-349">
          <mxGeometry x="443" width="123" height="33" as="geometry">
            <mxRectangle width="123" height="33" as="alternateBounds" />
          </mxGeometry>
        </mxCell>
        <mxCell id="kcfCH9ECL4U-9kLb-d-U-355" value="NOT NULL" style="connectable=0;recursiveResize=0;strokeColor=inherit;fillColor=#A7C942;align=center;fontStyle=1;fontColor=#FFFFFF;html=1;" vertex="1" parent="kcfCH9ECL4U-9kLb-d-U-349">
          <mxGeometry x="566" width="124" height="33" as="geometry">
            <mxRectangle width="124" height="33" as="alternateBounds" />
          </mxGeometry>
        </mxCell>
        <mxCell id="kcfCH9ECL4U-9kLb-d-U-356" value="" style="shape=tableRow;horizontal=0;startSize=0;swimlaneHead=0;swimlaneBody=0;top=0;left=0;bottom=0;right=0;dropTarget=0;collapsible=0;recursiveResize=0;expand=0;fontStyle=0;strokeColor=inherit;fillColor=#ffffff;" vertex="1" parent="kcfCH9ECL4U-9kLb-d-U-348">
          <mxGeometry y="33" width="690" height="32" as="geometry" />
        </mxCell>
        <mxCell id="kcfCH9ECL4U-9kLb-d-U-357" value="PK" style="connectable=0;recursiveResize=0;strokeColor=inherit;fillColor=inherit;align=center;whiteSpace=wrap;html=1;" vertex="1" parent="kcfCH9ECL4U-9kLb-d-U-356">
          <mxGeometry width="62" height="32" as="geometry">
            <mxRectangle width="62" height="32" as="alternateBounds" />
          </mxGeometry>
        </mxCell>
        <mxCell id="kcfCH9ECL4U-9kLb-d-U-358" value="가게테이블 아이디" style="connectable=0;recursiveResize=0;strokeColor=inherit;fillColor=inherit;align=center;whiteSpace=wrap;html=1;" vertex="1" parent="kcfCH9ECL4U-9kLb-d-U-356">
          <mxGeometry x="62" width="134" height="32" as="geometry">
            <mxRectangle width="134" height="32" as="alternateBounds" />
          </mxGeometry>
        </mxCell>
        <mxCell id="kcfCH9ECL4U-9kLb-d-U-359" value="store_id" style="connectable=0;recursiveResize=0;strokeColor=inherit;fillColor=inherit;align=center;whiteSpace=wrap;html=1;" vertex="1" parent="kcfCH9ECL4U-9kLb-d-U-356">
          <mxGeometry x="196" width="123" height="32" as="geometry">
            <mxRectangle width="123" height="32" as="alternateBounds" />
          </mxGeometry>
        </mxCell>
        <mxCell id="kcfCH9ECL4U-9kLb-d-U-360" style="connectable=0;recursiveResize=0;strokeColor=inherit;fillColor=inherit;align=center;whiteSpace=wrap;html=1;" vertex="1" parent="kcfCH9ECL4U-9kLb-d-U-356">
          <mxGeometry x="319" width="124" height="32" as="geometry">
            <mxRectangle width="124" height="32" as="alternateBounds" />
          </mxGeometry>
        </mxCell>
        <mxCell id="kcfCH9ECL4U-9kLb-d-U-361" style="connectable=0;recursiveResize=0;strokeColor=inherit;fillColor=inherit;align=center;whiteSpace=wrap;html=1;" vertex="1" parent="kcfCH9ECL4U-9kLb-d-U-356">
          <mxGeometry x="443" width="123" height="32" as="geometry">
            <mxRectangle width="123" height="32" as="alternateBounds" />
          </mxGeometry>
        </mxCell>
        <mxCell id="kcfCH9ECL4U-9kLb-d-U-362" style="connectable=0;recursiveResize=0;strokeColor=inherit;fillColor=inherit;align=center;whiteSpace=wrap;html=1;" vertex="1" parent="kcfCH9ECL4U-9kLb-d-U-356">
          <mxGeometry x="566" width="124" height="32" as="geometry">
            <mxRectangle width="124" height="32" as="alternateBounds" />
          </mxGeometry>
        </mxCell>
        <mxCell id="kcfCH9ECL4U-9kLb-d-U-363" value="" style="shape=tableRow;horizontal=0;startSize=0;swimlaneHead=0;swimlaneBody=0;top=0;left=0;bottom=0;right=0;dropTarget=0;collapsible=0;recursiveResize=0;expand=0;fontStyle=1;strokeColor=inherit;fillColor=#EAF2D3;" vertex="1" parent="kcfCH9ECL4U-9kLb-d-U-348">
          <mxGeometry y="65" width="690" height="31" as="geometry" />
        </mxCell>
        <mxCell id="kcfCH9ECL4U-9kLb-d-U-364" value="" style="connectable=0;recursiveResize=0;strokeColor=inherit;fillColor=inherit;whiteSpace=wrap;html=1;" vertex="1" parent="kcfCH9ECL4U-9kLb-d-U-363">
          <mxGeometry width="62" height="31" as="geometry">
            <mxRectangle width="62" height="31" as="alternateBounds" />
          </mxGeometry>
        </mxCell>
        <mxCell id="kcfCH9ECL4U-9kLb-d-U-365" value="가게상호" style="connectable=0;recursiveResize=0;strokeColor=inherit;fillColor=inherit;whiteSpace=wrap;html=1;" vertex="1" parent="kcfCH9ECL4U-9kLb-d-U-363">
          <mxGeometry x="62" width="134" height="31" as="geometry">
            <mxRectangle width="134" height="31" as="alternateBounds" />
          </mxGeometry>
        </mxCell>
        <mxCell id="kcfCH9ECL4U-9kLb-d-U-366" value="Value 6" style="connectable=0;recursiveResize=0;strokeColor=inherit;fillColor=inherit;whiteSpace=wrap;html=1;" vertex="1" parent="kcfCH9ECL4U-9kLb-d-U-363">
          <mxGeometry x="196" width="123" height="31" as="geometry">
            <mxRectangle width="123" height="31" as="alternateBounds" />
          </mxGeometry>
        </mxCell>
        <mxCell id="kcfCH9ECL4U-9kLb-d-U-367" style="connectable=0;recursiveResize=0;strokeColor=inherit;fillColor=inherit;whiteSpace=wrap;html=1;" vertex="1" parent="kcfCH9ECL4U-9kLb-d-U-363">
          <mxGeometry x="319" width="124" height="31" as="geometry">
            <mxRectangle width="124" height="31" as="alternateBounds" />
          </mxGeometry>
        </mxCell>
        <mxCell id="kcfCH9ECL4U-9kLb-d-U-368" style="connectable=0;recursiveResize=0;strokeColor=inherit;fillColor=inherit;whiteSpace=wrap;html=1;" vertex="1" parent="kcfCH9ECL4U-9kLb-d-U-363">
          <mxGeometry x="443" width="123" height="31" as="geometry">
            <mxRectangle width="123" height="31" as="alternateBounds" />
          </mxGeometry>
        </mxCell>
        <mxCell id="kcfCH9ECL4U-9kLb-d-U-369" style="connectable=0;recursiveResize=0;strokeColor=inherit;fillColor=inherit;whiteSpace=wrap;html=1;" vertex="1" parent="kcfCH9ECL4U-9kLb-d-U-363">
          <mxGeometry x="566" width="124" height="31" as="geometry">
            <mxRectangle width="124" height="31" as="alternateBounds" />
          </mxGeometry>
        </mxCell>
        <mxCell id="kcfCH9ECL4U-9kLb-d-U-405" value="" style="childLayout=tableLayout;recursiveResize=0;strokeColor=#98bf21;fillColor=#A7C942;shadow=1;" vertex="1" parent="1">
          <mxGeometry x="790" y="360" width="690" height="222" as="geometry" />
        </mxCell>
        <mxCell id="kcfCH9ECL4U-9kLb-d-U-406" style="shape=tableRow;horizontal=0;startSize=0;swimlaneHead=0;swimlaneBody=0;top=0;left=0;bottom=0;right=0;dropTarget=0;collapsible=0;recursiveResize=0;expand=0;fontStyle=0;strokeColor=inherit;fillColor=#ffffff;" vertex="1" parent="kcfCH9ECL4U-9kLb-d-U-405">
          <mxGeometry width="690" height="33" as="geometry" />
        </mxCell>
        <mxCell id="kcfCH9ECL4U-9kLb-d-U-407" value="Comments" style="connectable=0;recursiveResize=0;strokeColor=inherit;fillColor=#A7C942;align=center;fontStyle=1;fontColor=#FFFFFF;html=1;" vertex="1" parent="kcfCH9ECL4U-9kLb-d-U-406">
          <mxGeometry width="70" height="33" as="geometry">
            <mxRectangle width="70" height="33" as="alternateBounds" />
          </mxGeometry>
        </mxCell>
        <mxCell id="kcfCH9ECL4U-9kLb-d-U-408" value="구분" style="connectable=0;recursiveResize=0;strokeColor=inherit;fillColor=#A7C942;align=center;fontStyle=1;fontColor=#FFFFFF;html=1;" vertex="1" parent="kcfCH9ECL4U-9kLb-d-U-406">
          <mxGeometry x="70" width="126" height="33" as="geometry">
            <mxRectangle width="126" height="33" as="alternateBounds" />
          </mxGeometry>
        </mxCell>
        <mxCell id="kcfCH9ECL4U-9kLb-d-U-409" value="Seq" style="connectable=0;recursiveResize=0;strokeColor=inherit;fillColor=#A7C942;align=center;fontStyle=1;fontColor=#FFFFFF;html=1;" vertex="1" parent="kcfCH9ECL4U-9kLb-d-U-406">
          <mxGeometry x="196" width="123" height="33" as="geometry">
            <mxRectangle width="123" height="33" as="alternateBounds" />
          </mxGeometry>
        </mxCell>
        <mxCell id="kcfCH9ECL4U-9kLb-d-U-410" value="Field Type" style="connectable=0;recursiveResize=0;strokeColor=inherit;fillColor=#A7C942;align=center;fontStyle=1;fontColor=#FFFFFF;html=1;" vertex="1" parent="kcfCH9ECL4U-9kLb-d-U-406">
          <mxGeometry x="319" width="124" height="33" as="geometry">
            <mxRectangle width="124" height="33" as="alternateBounds" />
          </mxGeometry>
        </mxCell>
        <mxCell id="kcfCH9ECL4U-9kLb-d-U-411" value="Constraint" style="connectable=0;recursiveResize=0;strokeColor=inherit;fillColor=#A7C942;align=center;fontStyle=1;fontColor=#FFFFFF;html=1;" vertex="1" parent="kcfCH9ECL4U-9kLb-d-U-406">
          <mxGeometry x="443" width="123" height="33" as="geometry">
            <mxRectangle width="123" height="33" as="alternateBounds" />
          </mxGeometry>
        </mxCell>
        <mxCell id="kcfCH9ECL4U-9kLb-d-U-412" value="NOT NULL" style="connectable=0;recursiveResize=0;strokeColor=inherit;fillColor=#A7C942;align=center;fontStyle=1;fontColor=#FFFFFF;html=1;" vertex="1" parent="kcfCH9ECL4U-9kLb-d-U-406">
          <mxGeometry x="566" width="124" height="33" as="geometry">
            <mxRectangle width="124" height="33" as="alternateBounds" />
          </mxGeometry>
        </mxCell>
        <mxCell id="kcfCH9ECL4U-9kLb-d-U-413" value="" style="shape=tableRow;horizontal=0;startSize=0;swimlaneHead=0;swimlaneBody=0;top=0;left=0;bottom=0;right=0;dropTarget=0;collapsible=0;recursiveResize=0;expand=0;fontStyle=0;strokeColor=inherit;fillColor=#ffffff;" vertex="1" parent="kcfCH9ECL4U-9kLb-d-U-405">
          <mxGeometry y="33" width="690" height="32" as="geometry" />
        </mxCell>
        <mxCell id="kcfCH9ECL4U-9kLb-d-U-414" value="PK" style="connectable=0;recursiveResize=0;strokeColor=inherit;fillColor=inherit;align=center;whiteSpace=wrap;html=1;" vertex="1" parent="kcfCH9ECL4U-9kLb-d-U-413">
          <mxGeometry width="70" height="32" as="geometry">
            <mxRectangle width="70" height="32" as="alternateBounds" />
          </mxGeometry>
        </mxCell>
        <mxCell id="kcfCH9ECL4U-9kLb-d-U-415" value="댓글테이블 아이디" style="connectable=0;recursiveResize=0;strokeColor=inherit;fillColor=inherit;align=center;whiteSpace=wrap;html=1;" vertex="1" parent="kcfCH9ECL4U-9kLb-d-U-413">
          <mxGeometry x="70" width="126" height="32" as="geometry">
            <mxRectangle width="126" height="32" as="alternateBounds" />
          </mxGeometry>
        </mxCell>
        <mxCell id="kcfCH9ECL4U-9kLb-d-U-416" value="Value 3" style="connectable=0;recursiveResize=0;strokeColor=inherit;fillColor=inherit;align=center;whiteSpace=wrap;html=1;" vertex="1" parent="kcfCH9ECL4U-9kLb-d-U-413">
          <mxGeometry x="196" width="123" height="32" as="geometry">
            <mxRectangle width="123" height="32" as="alternateBounds" />
          </mxGeometry>
        </mxCell>
        <mxCell id="kcfCH9ECL4U-9kLb-d-U-417" style="connectable=0;recursiveResize=0;strokeColor=inherit;fillColor=inherit;align=center;whiteSpace=wrap;html=1;" vertex="1" parent="kcfCH9ECL4U-9kLb-d-U-413">
          <mxGeometry x="319" width="124" height="32" as="geometry">
            <mxRectangle width="124" height="32" as="alternateBounds" />
          </mxGeometry>
        </mxCell>
        <mxCell id="kcfCH9ECL4U-9kLb-d-U-418" style="connectable=0;recursiveResize=0;strokeColor=inherit;fillColor=inherit;align=center;whiteSpace=wrap;html=1;" vertex="1" parent="kcfCH9ECL4U-9kLb-d-U-413">
          <mxGeometry x="443" width="123" height="32" as="geometry">
            <mxRectangle width="123" height="32" as="alternateBounds" />
          </mxGeometry>
        </mxCell>
        <mxCell id="kcfCH9ECL4U-9kLb-d-U-419" style="connectable=0;recursiveResize=0;strokeColor=inherit;fillColor=inherit;align=center;whiteSpace=wrap;html=1;" vertex="1" parent="kcfCH9ECL4U-9kLb-d-U-413">
          <mxGeometry x="566" width="124" height="32" as="geometry">
            <mxRectangle width="124" height="32" as="alternateBounds" />
          </mxGeometry>
        </mxCell>
        <mxCell id="kcfCH9ECL4U-9kLb-d-U-420" value="" style="shape=tableRow;horizontal=0;startSize=0;swimlaneHead=0;swimlaneBody=0;top=0;left=0;bottom=0;right=0;dropTarget=0;collapsible=0;recursiveResize=0;expand=0;fontStyle=1;strokeColor=inherit;fillColor=#EAF2D3;" vertex="1" parent="kcfCH9ECL4U-9kLb-d-U-405">
          <mxGeometry y="65" width="690" height="31" as="geometry" />
        </mxCell>
        <mxCell id="kcfCH9ECL4U-9kLb-d-U-421" value="FK" style="connectable=0;recursiveResize=0;strokeColor=inherit;fillColor=inherit;whiteSpace=wrap;html=1;" vertex="1" parent="kcfCH9ECL4U-9kLb-d-U-420">
          <mxGeometry width="70" height="31" as="geometry">
            <mxRectangle width="70" height="31" as="alternateBounds" />
          </mxGeometry>
        </mxCell>
        <mxCell id="kcfCH9ECL4U-9kLb-d-U-422" value="리뷰테이블 아이디" style="connectable=0;recursiveResize=0;strokeColor=inherit;fillColor=inherit;whiteSpace=wrap;html=1;" vertex="1" parent="kcfCH9ECL4U-9kLb-d-U-420">
          <mxGeometry x="70" width="126" height="31" as="geometry">
            <mxRectangle width="126" height="31" as="alternateBounds" />
          </mxGeometry>
        </mxCell>
        <mxCell id="kcfCH9ECL4U-9kLb-d-U-423" value="Value 6" style="connectable=0;recursiveResize=0;strokeColor=inherit;fillColor=inherit;whiteSpace=wrap;html=1;" vertex="1" parent="kcfCH9ECL4U-9kLb-d-U-420">
          <mxGeometry x="196" width="123" height="31" as="geometry">
            <mxRectangle width="123" height="31" as="alternateBounds" />
          </mxGeometry>
        </mxCell>
        <mxCell id="kcfCH9ECL4U-9kLb-d-U-424" style="connectable=0;recursiveResize=0;strokeColor=inherit;fillColor=inherit;whiteSpace=wrap;html=1;" vertex="1" parent="kcfCH9ECL4U-9kLb-d-U-420">
          <mxGeometry x="319" width="124" height="31" as="geometry">
            <mxRectangle width="124" height="31" as="alternateBounds" />
          </mxGeometry>
        </mxCell>
        <mxCell id="kcfCH9ECL4U-9kLb-d-U-425" style="connectable=0;recursiveResize=0;strokeColor=inherit;fillColor=inherit;whiteSpace=wrap;html=1;" vertex="1" parent="kcfCH9ECL4U-9kLb-d-U-420">
          <mxGeometry x="443" width="123" height="31" as="geometry">
            <mxRectangle width="123" height="31" as="alternateBounds" />
          </mxGeometry>
        </mxCell>
        <mxCell id="kcfCH9ECL4U-9kLb-d-U-426" style="connectable=0;recursiveResize=0;strokeColor=inherit;fillColor=inherit;whiteSpace=wrap;html=1;" vertex="1" parent="kcfCH9ECL4U-9kLb-d-U-420">
          <mxGeometry x="566" width="124" height="31" as="geometry">
            <mxRectangle width="124" height="31" as="alternateBounds" />
          </mxGeometry>
        </mxCell>
        <mxCell id="zCx3nKabEPdlDjCJAVr0-8" style="shape=tableRow;horizontal=0;startSize=0;swimlaneHead=0;swimlaneBody=0;top=0;left=0;bottom=0;right=0;dropTarget=0;collapsible=0;recursiveResize=0;expand=0;fontStyle=1;strokeColor=inherit;fillColor=#EAF2D3;" vertex="1" parent="kcfCH9ECL4U-9kLb-d-U-405">
          <mxGeometry y="96" width="690" height="31" as="geometry" />
        </mxCell>
        <mxCell id="zCx3nKabEPdlDjCJAVr0-9" value="FK" style="connectable=0;recursiveResize=0;strokeColor=inherit;fillColor=inherit;whiteSpace=wrap;html=1;" vertex="1" parent="zCx3nKabEPdlDjCJAVr0-8">
          <mxGeometry width="70" height="31" as="geometry">
            <mxRectangle width="70" height="31" as="alternateBounds" />
          </mxGeometry>
        </mxCell>
        <mxCell id="zCx3nKabEPdlDjCJAVr0-10" value="유저테이블 아이디" style="connectable=0;recursiveResize=0;strokeColor=inherit;fillColor=inherit;whiteSpace=wrap;html=1;" vertex="1" parent="zCx3nKabEPdlDjCJAVr0-8">
          <mxGeometry x="70" width="126" height="31" as="geometry">
            <mxRectangle width="126" height="31" as="alternateBounds" />
          </mxGeometry>
        </mxCell>
        <mxCell id="zCx3nKabEPdlDjCJAVr0-11" style="connectable=0;recursiveResize=0;strokeColor=inherit;fillColor=inherit;whiteSpace=wrap;html=1;" vertex="1" parent="zCx3nKabEPdlDjCJAVr0-8">
          <mxGeometry x="196" width="123" height="31" as="geometry">
            <mxRectangle width="123" height="31" as="alternateBounds" />
          </mxGeometry>
        </mxCell>
        <mxCell id="zCx3nKabEPdlDjCJAVr0-12" style="connectable=0;recursiveResize=0;strokeColor=inherit;fillColor=inherit;whiteSpace=wrap;html=1;" vertex="1" parent="zCx3nKabEPdlDjCJAVr0-8">
          <mxGeometry x="319" width="124" height="31" as="geometry">
            <mxRectangle width="124" height="31" as="alternateBounds" />
          </mxGeometry>
        </mxCell>
        <mxCell id="zCx3nKabEPdlDjCJAVr0-13" style="connectable=0;recursiveResize=0;strokeColor=inherit;fillColor=inherit;whiteSpace=wrap;html=1;" vertex="1" parent="zCx3nKabEPdlDjCJAVr0-8">
          <mxGeometry x="443" width="123" height="31" as="geometry">
            <mxRectangle width="123" height="31" as="alternateBounds" />
          </mxGeometry>
        </mxCell>
        <mxCell id="zCx3nKabEPdlDjCJAVr0-14" style="connectable=0;recursiveResize=0;strokeColor=inherit;fillColor=inherit;whiteSpace=wrap;html=1;" vertex="1" parent="zCx3nKabEPdlDjCJAVr0-8">
          <mxGeometry x="566" width="124" height="31" as="geometry">
            <mxRectangle width="124" height="31" as="alternateBounds" />
          </mxGeometry>
        </mxCell>
        <mxCell id="kcfCH9ECL4U-9kLb-d-U-427" value="" style="shape=tableRow;horizontal=0;startSize=0;swimlaneHead=0;swimlaneBody=0;top=0;left=0;bottom=0;right=0;dropTarget=0;collapsible=0;recursiveResize=0;expand=0;fontStyle=0;strokeColor=inherit;fillColor=#ffffff;" vertex="1" parent="kcfCH9ECL4U-9kLb-d-U-405">
          <mxGeometry y="127" width="690" height="33" as="geometry" />
        </mxCell>
        <mxCell id="kcfCH9ECL4U-9kLb-d-U-428" value="" style="connectable=0;recursiveResize=0;strokeColor=inherit;fillColor=inherit;fontStyle=0;align=center;whiteSpace=wrap;html=1;" vertex="1" parent="kcfCH9ECL4U-9kLb-d-U-427">
          <mxGeometry width="70" height="33" as="geometry">
            <mxRectangle width="70" height="33" as="alternateBounds" />
          </mxGeometry>
        </mxCell>
        <mxCell id="kcfCH9ECL4U-9kLb-d-U-429" value="댓글 내용" style="connectable=0;recursiveResize=0;strokeColor=inherit;fillColor=inherit;fontStyle=0;align=center;whiteSpace=wrap;html=1;" vertex="1" parent="kcfCH9ECL4U-9kLb-d-U-427">
          <mxGeometry x="70" width="126" height="33" as="geometry">
            <mxRectangle width="126" height="33" as="alternateBounds" />
          </mxGeometry>
        </mxCell>
        <mxCell id="kcfCH9ECL4U-9kLb-d-U-430" value="Value 9" style="connectable=0;recursiveResize=0;strokeColor=inherit;fillColor=inherit;fontStyle=0;align=center;whiteSpace=wrap;html=1;" vertex="1" parent="kcfCH9ECL4U-9kLb-d-U-427">
          <mxGeometry x="196" width="123" height="33" as="geometry">
            <mxRectangle width="123" height="33" as="alternateBounds" />
          </mxGeometry>
        </mxCell>
        <mxCell id="kcfCH9ECL4U-9kLb-d-U-431" style="connectable=0;recursiveResize=0;strokeColor=inherit;fillColor=inherit;fontStyle=0;align=center;whiteSpace=wrap;html=1;" vertex="1" parent="kcfCH9ECL4U-9kLb-d-U-427">
          <mxGeometry x="319" width="124" height="33" as="geometry">
            <mxRectangle width="124" height="33" as="alternateBounds" />
          </mxGeometry>
        </mxCell>
        <mxCell id="kcfCH9ECL4U-9kLb-d-U-432" style="connectable=0;recursiveResize=0;strokeColor=inherit;fillColor=inherit;fontStyle=0;align=center;whiteSpace=wrap;html=1;" vertex="1" parent="kcfCH9ECL4U-9kLb-d-U-427">
          <mxGeometry x="443" width="123" height="33" as="geometry">
            <mxRectangle width="123" height="33" as="alternateBounds" />
          </mxGeometry>
        </mxCell>
        <mxCell id="kcfCH9ECL4U-9kLb-d-U-433" style="connectable=0;recursiveResize=0;strokeColor=inherit;fillColor=inherit;fontStyle=0;align=center;whiteSpace=wrap;html=1;" vertex="1" parent="kcfCH9ECL4U-9kLb-d-U-427">
          <mxGeometry x="566" width="124" height="33" as="geometry">
            <mxRectangle width="124" height="33" as="alternateBounds" />
          </mxGeometry>
        </mxCell>
        <mxCell id="kcfCH9ECL4U-9kLb-d-U-434" value="" style="shape=tableRow;horizontal=0;startSize=0;swimlaneHead=0;swimlaneBody=0;top=0;left=0;bottom=0;right=0;dropTarget=0;collapsible=0;recursiveResize=0;expand=0;fontStyle=1;strokeColor=inherit;fillColor=#EAF2D3;" vertex="1" parent="kcfCH9ECL4U-9kLb-d-U-405">
          <mxGeometry y="160" width="690" height="31" as="geometry" />
        </mxCell>
        <mxCell id="kcfCH9ECL4U-9kLb-d-U-435" value="" style="connectable=0;recursiveResize=0;strokeColor=inherit;fillColor=inherit;whiteSpace=wrap;html=1;" vertex="1" parent="kcfCH9ECL4U-9kLb-d-U-434">
          <mxGeometry width="70" height="31" as="geometry">
            <mxRectangle width="70" height="31" as="alternateBounds" />
          </mxGeometry>
        </mxCell>
        <mxCell id="kcfCH9ECL4U-9kLb-d-U-436" value="댓글 작성 일자" style="connectable=0;recursiveResize=0;strokeColor=inherit;fillColor=inherit;whiteSpace=wrap;html=1;" vertex="1" parent="kcfCH9ECL4U-9kLb-d-U-434">
          <mxGeometry x="70" width="126" height="31" as="geometry">
            <mxRectangle width="126" height="31" as="alternateBounds" />
          </mxGeometry>
        </mxCell>
        <mxCell id="kcfCH9ECL4U-9kLb-d-U-437" value="Value 12" style="connectable=0;recursiveResize=0;strokeColor=inherit;fillColor=inherit;whiteSpace=wrap;html=1;" vertex="1" parent="kcfCH9ECL4U-9kLb-d-U-434">
          <mxGeometry x="196" width="123" height="31" as="geometry">
            <mxRectangle width="123" height="31" as="alternateBounds" />
          </mxGeometry>
        </mxCell>
        <mxCell id="kcfCH9ECL4U-9kLb-d-U-438" style="connectable=0;recursiveResize=0;strokeColor=inherit;fillColor=inherit;whiteSpace=wrap;html=1;" vertex="1" parent="kcfCH9ECL4U-9kLb-d-U-434">
          <mxGeometry x="319" width="124" height="31" as="geometry">
            <mxRectangle width="124" height="31" as="alternateBounds" />
          </mxGeometry>
        </mxCell>
        <mxCell id="kcfCH9ECL4U-9kLb-d-U-439" style="connectable=0;recursiveResize=0;strokeColor=inherit;fillColor=inherit;whiteSpace=wrap;html=1;" vertex="1" parent="kcfCH9ECL4U-9kLb-d-U-434">
          <mxGeometry x="443" width="123" height="31" as="geometry">
            <mxRectangle width="123" height="31" as="alternateBounds" />
          </mxGeometry>
        </mxCell>
        <mxCell id="kcfCH9ECL4U-9kLb-d-U-440" style="connectable=0;recursiveResize=0;strokeColor=inherit;fillColor=inherit;whiteSpace=wrap;html=1;" vertex="1" parent="kcfCH9ECL4U-9kLb-d-U-434">
          <mxGeometry x="566" width="124" height="31" as="geometry">
            <mxRectangle width="124" height="31" as="alternateBounds" />
          </mxGeometry>
        </mxCell>
        <mxCell id="kcfCH9ECL4U-9kLb-d-U-441" style="shape=tableRow;horizontal=0;startSize=0;swimlaneHead=0;swimlaneBody=0;top=0;left=0;bottom=0;right=0;dropTarget=0;collapsible=0;recursiveResize=0;expand=0;fontStyle=1;strokeColor=inherit;fillColor=#EAF2D3;" vertex="1" parent="kcfCH9ECL4U-9kLb-d-U-405">
          <mxGeometry y="191" width="690" height="31" as="geometry" />
        </mxCell>
        <mxCell id="kcfCH9ECL4U-9kLb-d-U-442" style="connectable=0;recursiveResize=0;strokeColor=inherit;fillColor=inherit;whiteSpace=wrap;html=1;" vertex="1" parent="kcfCH9ECL4U-9kLb-d-U-441">
          <mxGeometry width="70" height="31" as="geometry">
            <mxRectangle width="70" height="31" as="alternateBounds" />
          </mxGeometry>
        </mxCell>
        <mxCell id="kcfCH9ECL4U-9kLb-d-U-443" value="댓글 수정 일자" style="connectable=0;recursiveResize=0;strokeColor=inherit;fillColor=inherit;whiteSpace=wrap;html=1;" vertex="1" parent="kcfCH9ECL4U-9kLb-d-U-441">
          <mxGeometry x="70" width="126" height="31" as="geometry">
            <mxRectangle width="126" height="31" as="alternateBounds" />
          </mxGeometry>
        </mxCell>
        <mxCell id="kcfCH9ECL4U-9kLb-d-U-444" style="connectable=0;recursiveResize=0;strokeColor=inherit;fillColor=inherit;whiteSpace=wrap;html=1;" vertex="1" parent="kcfCH9ECL4U-9kLb-d-U-441">
          <mxGeometry x="196" width="123" height="31" as="geometry">
            <mxRectangle width="123" height="31" as="alternateBounds" />
          </mxGeometry>
        </mxCell>
        <mxCell id="kcfCH9ECL4U-9kLb-d-U-445" style="connectable=0;recursiveResize=0;strokeColor=inherit;fillColor=inherit;whiteSpace=wrap;html=1;" vertex="1" parent="kcfCH9ECL4U-9kLb-d-U-441">
          <mxGeometry x="319" width="124" height="31" as="geometry">
            <mxRectangle width="124" height="31" as="alternateBounds" />
          </mxGeometry>
        </mxCell>
        <mxCell id="kcfCH9ECL4U-9kLb-d-U-446" style="connectable=0;recursiveResize=0;strokeColor=inherit;fillColor=inherit;whiteSpace=wrap;html=1;" vertex="1" parent="kcfCH9ECL4U-9kLb-d-U-441">
          <mxGeometry x="443" width="123" height="31" as="geometry">
            <mxRectangle width="123" height="31" as="alternateBounds" />
          </mxGeometry>
        </mxCell>
        <mxCell id="kcfCH9ECL4U-9kLb-d-U-447" style="connectable=0;recursiveResize=0;strokeColor=inherit;fillColor=inherit;whiteSpace=wrap;html=1;" vertex="1" parent="kcfCH9ECL4U-9kLb-d-U-441">
          <mxGeometry x="566" width="124" height="31" as="geometry">
            <mxRectangle width="124" height="31" as="alternateBounds" />
          </mxGeometry>
        </mxCell>
        <mxCell id="kcfCH9ECL4U-9kLb-d-U-462" value="Assets" style="childLayout=tableLayout;recursiveResize=0;strokeColor=#98bf21;fillColor=#A7C942;shadow=1;" vertex="1" parent="1">
          <mxGeometry x="790" y="60" width="690" height="253" as="geometry" />
        </mxCell>
        <mxCell id="kcfCH9ECL4U-9kLb-d-U-463" style="shape=tableRow;horizontal=0;startSize=0;swimlaneHead=0;swimlaneBody=0;top=0;left=0;bottom=0;right=0;dropTarget=0;collapsible=0;recursiveResize=0;expand=0;fontStyle=0;strokeColor=inherit;fillColor=#ffffff;" vertex="1" parent="kcfCH9ECL4U-9kLb-d-U-462">
          <mxGeometry width="690" height="33" as="geometry" />
        </mxCell>
        <mxCell id="kcfCH9ECL4U-9kLb-d-U-464" value="Favorites" style="connectable=0;recursiveResize=0;strokeColor=inherit;fillColor=#A7C942;align=center;fontStyle=1;fontColor=#FFFFFF;html=1;" vertex="1" parent="kcfCH9ECL4U-9kLb-d-U-463">
          <mxGeometry width="62" height="33" as="geometry">
            <mxRectangle width="62" height="33" as="alternateBounds" />
          </mxGeometry>
        </mxCell>
        <mxCell id="kcfCH9ECL4U-9kLb-d-U-465" value="구분" style="connectable=0;recursiveResize=0;strokeColor=inherit;fillColor=#A7C942;align=center;fontStyle=1;fontColor=#FFFFFF;html=1;" vertex="1" parent="kcfCH9ECL4U-9kLb-d-U-463">
          <mxGeometry x="62" width="134" height="33" as="geometry">
            <mxRectangle width="134" height="33" as="alternateBounds" />
          </mxGeometry>
        </mxCell>
        <mxCell id="kcfCH9ECL4U-9kLb-d-U-466" value="Seq" style="connectable=0;recursiveResize=0;strokeColor=inherit;fillColor=#A7C942;align=center;fontStyle=1;fontColor=#FFFFFF;html=1;" vertex="1" parent="kcfCH9ECL4U-9kLb-d-U-463">
          <mxGeometry x="196" width="123" height="33" as="geometry">
            <mxRectangle width="123" height="33" as="alternateBounds" />
          </mxGeometry>
        </mxCell>
        <mxCell id="kcfCH9ECL4U-9kLb-d-U-467" value="Field Type" style="connectable=0;recursiveResize=0;strokeColor=inherit;fillColor=#A7C942;align=center;fontStyle=1;fontColor=#FFFFFF;html=1;" vertex="1" parent="kcfCH9ECL4U-9kLb-d-U-463">
          <mxGeometry x="319" width="124" height="33" as="geometry">
            <mxRectangle width="124" height="33" as="alternateBounds" />
          </mxGeometry>
        </mxCell>
        <mxCell id="kcfCH9ECL4U-9kLb-d-U-468" value="Constraint" style="connectable=0;recursiveResize=0;strokeColor=inherit;fillColor=#A7C942;align=center;fontStyle=1;fontColor=#FFFFFF;html=1;" vertex="1" parent="kcfCH9ECL4U-9kLb-d-U-463">
          <mxGeometry x="443" width="123" height="33" as="geometry">
            <mxRectangle width="123" height="33" as="alternateBounds" />
          </mxGeometry>
        </mxCell>
        <mxCell id="kcfCH9ECL4U-9kLb-d-U-469" value="NOT NULL" style="connectable=0;recursiveResize=0;strokeColor=inherit;fillColor=#A7C942;align=center;fontStyle=1;fontColor=#FFFFFF;html=1;" vertex="1" parent="kcfCH9ECL4U-9kLb-d-U-463">
          <mxGeometry x="566" width="124" height="33" as="geometry">
            <mxRectangle width="124" height="33" as="alternateBounds" />
          </mxGeometry>
        </mxCell>
        <mxCell id="kcfCH9ECL4U-9kLb-d-U-470" value="" style="shape=tableRow;horizontal=0;startSize=0;swimlaneHead=0;swimlaneBody=0;top=0;left=0;bottom=0;right=0;dropTarget=0;collapsible=0;recursiveResize=0;expand=0;fontStyle=0;strokeColor=inherit;fillColor=#ffffff;" vertex="1" parent="kcfCH9ECL4U-9kLb-d-U-462">
          <mxGeometry y="33" width="690" height="32" as="geometry" />
        </mxCell>
        <mxCell id="kcfCH9ECL4U-9kLb-d-U-471" value="PK" style="connectable=0;recursiveResize=0;strokeColor=inherit;fillColor=inherit;align=center;whiteSpace=wrap;html=1;" vertex="1" parent="kcfCH9ECL4U-9kLb-d-U-470">
          <mxGeometry width="62" height="32" as="geometry">
            <mxRectangle width="62" height="32" as="alternateBounds" />
          </mxGeometry>
        </mxCell>
        <mxCell id="kcfCH9ECL4U-9kLb-d-U-472" value="즐겨찾기테이블 아이디" style="connectable=0;recursiveResize=0;strokeColor=inherit;fillColor=inherit;align=center;whiteSpace=wrap;html=1;" vertex="1" parent="kcfCH9ECL4U-9kLb-d-U-470">
          <mxGeometry x="62" width="134" height="32" as="geometry">
            <mxRectangle width="134" height="32" as="alternateBounds" />
          </mxGeometry>
        </mxCell>
        <mxCell id="kcfCH9ECL4U-9kLb-d-U-473" value="Value 3" style="connectable=0;recursiveResize=0;strokeColor=inherit;fillColor=inherit;align=center;whiteSpace=wrap;html=1;" vertex="1" parent="kcfCH9ECL4U-9kLb-d-U-470">
          <mxGeometry x="196" width="123" height="32" as="geometry">
            <mxRectangle width="123" height="32" as="alternateBounds" />
          </mxGeometry>
        </mxCell>
        <mxCell id="kcfCH9ECL4U-9kLb-d-U-474" style="connectable=0;recursiveResize=0;strokeColor=inherit;fillColor=inherit;align=center;whiteSpace=wrap;html=1;" vertex="1" parent="kcfCH9ECL4U-9kLb-d-U-470">
          <mxGeometry x="319" width="124" height="32" as="geometry">
            <mxRectangle width="124" height="32" as="alternateBounds" />
          </mxGeometry>
        </mxCell>
        <mxCell id="kcfCH9ECL4U-9kLb-d-U-475" style="connectable=0;recursiveResize=0;strokeColor=inherit;fillColor=inherit;align=center;whiteSpace=wrap;html=1;" vertex="1" parent="kcfCH9ECL4U-9kLb-d-U-470">
          <mxGeometry x="443" width="123" height="32" as="geometry">
            <mxRectangle width="123" height="32" as="alternateBounds" />
          </mxGeometry>
        </mxCell>
        <mxCell id="kcfCH9ECL4U-9kLb-d-U-476" style="connectable=0;recursiveResize=0;strokeColor=inherit;fillColor=inherit;align=center;whiteSpace=wrap;html=1;" vertex="1" parent="kcfCH9ECL4U-9kLb-d-U-470">
          <mxGeometry x="566" width="124" height="32" as="geometry">
            <mxRectangle width="124" height="32" as="alternateBounds" />
          </mxGeometry>
        </mxCell>
        <mxCell id="kcfCH9ECL4U-9kLb-d-U-477" value="" style="shape=tableRow;horizontal=0;startSize=0;swimlaneHead=0;swimlaneBody=0;top=0;left=0;bottom=0;right=0;dropTarget=0;collapsible=0;recursiveResize=0;expand=0;fontStyle=1;strokeColor=inherit;fillColor=#EAF2D3;" vertex="1" parent="kcfCH9ECL4U-9kLb-d-U-462">
          <mxGeometry y="65" width="690" height="31" as="geometry" />
        </mxCell>
        <mxCell id="kcfCH9ECL4U-9kLb-d-U-478" value="FK" style="connectable=0;recursiveResize=0;strokeColor=inherit;fillColor=inherit;whiteSpace=wrap;html=1;" vertex="1" parent="kcfCH9ECL4U-9kLb-d-U-477">
          <mxGeometry width="62" height="31" as="geometry">
            <mxRectangle width="62" height="31" as="alternateBounds" />
          </mxGeometry>
        </mxCell>
        <mxCell id="kcfCH9ECL4U-9kLb-d-U-479" value="리뷰테이블 아이디" style="connectable=0;recursiveResize=0;strokeColor=inherit;fillColor=inherit;whiteSpace=wrap;html=1;" vertex="1" parent="kcfCH9ECL4U-9kLb-d-U-477">
          <mxGeometry x="62" width="134" height="31" as="geometry">
            <mxRectangle width="134" height="31" as="alternateBounds" />
          </mxGeometry>
        </mxCell>
        <mxCell id="kcfCH9ECL4U-9kLb-d-U-480" value="Value 6" style="connectable=0;recursiveResize=0;strokeColor=inherit;fillColor=inherit;whiteSpace=wrap;html=1;" vertex="1" parent="kcfCH9ECL4U-9kLb-d-U-477">
          <mxGeometry x="196" width="123" height="31" as="geometry">
            <mxRectangle width="123" height="31" as="alternateBounds" />
          </mxGeometry>
        </mxCell>
        <mxCell id="kcfCH9ECL4U-9kLb-d-U-481" style="connectable=0;recursiveResize=0;strokeColor=inherit;fillColor=inherit;whiteSpace=wrap;html=1;" vertex="1" parent="kcfCH9ECL4U-9kLb-d-U-477">
          <mxGeometry x="319" width="124" height="31" as="geometry">
            <mxRectangle width="124" height="31" as="alternateBounds" />
          </mxGeometry>
        </mxCell>
        <mxCell id="kcfCH9ECL4U-9kLb-d-U-482" style="connectable=0;recursiveResize=0;strokeColor=inherit;fillColor=inherit;whiteSpace=wrap;html=1;" vertex="1" parent="kcfCH9ECL4U-9kLb-d-U-477">
          <mxGeometry x="443" width="123" height="31" as="geometry">
            <mxRectangle width="123" height="31" as="alternateBounds" />
          </mxGeometry>
        </mxCell>
        <mxCell id="kcfCH9ECL4U-9kLb-d-U-483" style="connectable=0;recursiveResize=0;strokeColor=inherit;fillColor=inherit;whiteSpace=wrap;html=1;" vertex="1" parent="kcfCH9ECL4U-9kLb-d-U-477">
          <mxGeometry x="566" width="124" height="31" as="geometry">
            <mxRectangle width="124" height="31" as="alternateBounds" />
          </mxGeometry>
        </mxCell>
        <mxCell id="kcfCH9ECL4U-9kLb-d-U-484" value="" style="shape=tableRow;horizontal=0;startSize=0;swimlaneHead=0;swimlaneBody=0;top=0;left=0;bottom=0;right=0;dropTarget=0;collapsible=0;recursiveResize=0;expand=0;fontStyle=0;strokeColor=inherit;fillColor=#ffffff;" vertex="1" parent="kcfCH9ECL4U-9kLb-d-U-462">
          <mxGeometry y="96" width="690" height="33" as="geometry" />
        </mxCell>
        <mxCell id="kcfCH9ECL4U-9kLb-d-U-485" value="FK" style="connectable=0;recursiveResize=0;strokeColor=inherit;fillColor=inherit;fontStyle=0;align=center;whiteSpace=wrap;html=1;" vertex="1" parent="kcfCH9ECL4U-9kLb-d-U-484">
          <mxGeometry width="62" height="33" as="geometry">
            <mxRectangle width="62" height="33" as="alternateBounds" />
          </mxGeometry>
        </mxCell>
        <mxCell id="kcfCH9ECL4U-9kLb-d-U-486" value="유저테이블 아이디" style="connectable=0;recursiveResize=0;strokeColor=inherit;fillColor=inherit;fontStyle=0;align=center;whiteSpace=wrap;html=1;" vertex="1" parent="kcfCH9ECL4U-9kLb-d-U-484">
          <mxGeometry x="62" width="134" height="33" as="geometry">
            <mxRectangle width="134" height="33" as="alternateBounds" />
          </mxGeometry>
        </mxCell>
        <mxCell id="kcfCH9ECL4U-9kLb-d-U-487" value="Value 9" style="connectable=0;recursiveResize=0;strokeColor=inherit;fillColor=inherit;fontStyle=0;align=center;whiteSpace=wrap;html=1;" vertex="1" parent="kcfCH9ECL4U-9kLb-d-U-484">
          <mxGeometry x="196" width="123" height="33" as="geometry">
            <mxRectangle width="123" height="33" as="alternateBounds" />
          </mxGeometry>
        </mxCell>
        <mxCell id="kcfCH9ECL4U-9kLb-d-U-488" style="connectable=0;recursiveResize=0;strokeColor=inherit;fillColor=inherit;fontStyle=0;align=center;whiteSpace=wrap;html=1;" vertex="1" parent="kcfCH9ECL4U-9kLb-d-U-484">
          <mxGeometry x="319" width="124" height="33" as="geometry">
            <mxRectangle width="124" height="33" as="alternateBounds" />
          </mxGeometry>
        </mxCell>
        <mxCell id="kcfCH9ECL4U-9kLb-d-U-489" style="connectable=0;recursiveResize=0;strokeColor=inherit;fillColor=inherit;fontStyle=0;align=center;whiteSpace=wrap;html=1;" vertex="1" parent="kcfCH9ECL4U-9kLb-d-U-484">
          <mxGeometry x="443" width="123" height="33" as="geometry">
            <mxRectangle width="123" height="33" as="alternateBounds" />
          </mxGeometry>
        </mxCell>
        <mxCell id="kcfCH9ECL4U-9kLb-d-U-490" style="connectable=0;recursiveResize=0;strokeColor=inherit;fillColor=inherit;fontStyle=0;align=center;whiteSpace=wrap;html=1;" vertex="1" parent="kcfCH9ECL4U-9kLb-d-U-484">
          <mxGeometry x="566" width="124" height="33" as="geometry">
            <mxRectangle width="124" height="33" as="alternateBounds" />
          </mxGeometry>
        </mxCell>
        <mxCell id="kcfCH9ECL4U-9kLb-d-U-491" value="" style="shape=tableRow;horizontal=0;startSize=0;swimlaneHead=0;swimlaneBody=0;top=0;left=0;bottom=0;right=0;dropTarget=0;collapsible=0;recursiveResize=0;expand=0;fontStyle=1;strokeColor=inherit;fillColor=#EAF2D3;" vertex="1" parent="kcfCH9ECL4U-9kLb-d-U-462">
          <mxGeometry y="129" width="690" height="31" as="geometry" />
        </mxCell>
        <mxCell id="kcfCH9ECL4U-9kLb-d-U-492" value="" style="connectable=0;recursiveResize=0;strokeColor=inherit;fillColor=inherit;whiteSpace=wrap;html=1;" vertex="1" parent="kcfCH9ECL4U-9kLb-d-U-491">
          <mxGeometry width="62" height="31" as="geometry">
            <mxRectangle width="62" height="31" as="alternateBounds" />
          </mxGeometry>
        </mxCell>
        <mxCell id="kcfCH9ECL4U-9kLb-d-U-493" value="Value 11" style="connectable=0;recursiveResize=0;strokeColor=inherit;fillColor=inherit;whiteSpace=wrap;html=1;" vertex="1" parent="kcfCH9ECL4U-9kLb-d-U-491">
          <mxGeometry x="62" width="134" height="31" as="geometry">
            <mxRectangle width="134" height="31" as="alternateBounds" />
          </mxGeometry>
        </mxCell>
        <mxCell id="kcfCH9ECL4U-9kLb-d-U-494" value="Value 12" style="connectable=0;recursiveResize=0;strokeColor=inherit;fillColor=inherit;whiteSpace=wrap;html=1;" vertex="1" parent="kcfCH9ECL4U-9kLb-d-U-491">
          <mxGeometry x="196" width="123" height="31" as="geometry">
            <mxRectangle width="123" height="31" as="alternateBounds" />
          </mxGeometry>
        </mxCell>
        <mxCell id="kcfCH9ECL4U-9kLb-d-U-495" style="connectable=0;recursiveResize=0;strokeColor=inherit;fillColor=inherit;whiteSpace=wrap;html=1;" vertex="1" parent="kcfCH9ECL4U-9kLb-d-U-491">
          <mxGeometry x="319" width="124" height="31" as="geometry">
            <mxRectangle width="124" height="31" as="alternateBounds" />
          </mxGeometry>
        </mxCell>
        <mxCell id="kcfCH9ECL4U-9kLb-d-U-496" style="connectable=0;recursiveResize=0;strokeColor=inherit;fillColor=inherit;whiteSpace=wrap;html=1;" vertex="1" parent="kcfCH9ECL4U-9kLb-d-U-491">
          <mxGeometry x="443" width="123" height="31" as="geometry">
            <mxRectangle width="123" height="31" as="alternateBounds" />
          </mxGeometry>
        </mxCell>
        <mxCell id="kcfCH9ECL4U-9kLb-d-U-497" style="connectable=0;recursiveResize=0;strokeColor=inherit;fillColor=inherit;whiteSpace=wrap;html=1;" vertex="1" parent="kcfCH9ECL4U-9kLb-d-U-491">
          <mxGeometry x="566" width="124" height="31" as="geometry">
            <mxRectangle width="124" height="31" as="alternateBounds" />
          </mxGeometry>
        </mxCell>
        <mxCell id="kcfCH9ECL4U-9kLb-d-U-498" style="shape=tableRow;horizontal=0;startSize=0;swimlaneHead=0;swimlaneBody=0;top=0;left=0;bottom=0;right=0;dropTarget=0;collapsible=0;recursiveResize=0;expand=0;fontStyle=1;strokeColor=inherit;fillColor=#EAF2D3;" vertex="1" parent="kcfCH9ECL4U-9kLb-d-U-462">
          <mxGeometry y="160" width="690" height="31" as="geometry" />
        </mxCell>
        <mxCell id="kcfCH9ECL4U-9kLb-d-U-499" style="connectable=0;recursiveResize=0;strokeColor=inherit;fillColor=inherit;whiteSpace=wrap;html=1;" vertex="1" parent="kcfCH9ECL4U-9kLb-d-U-498">
          <mxGeometry width="62" height="31" as="geometry">
            <mxRectangle width="62" height="31" as="alternateBounds" />
          </mxGeometry>
        </mxCell>
        <mxCell id="kcfCH9ECL4U-9kLb-d-U-500" style="connectable=0;recursiveResize=0;strokeColor=inherit;fillColor=inherit;whiteSpace=wrap;html=1;" vertex="1" parent="kcfCH9ECL4U-9kLb-d-U-498">
          <mxGeometry x="62" width="134" height="31" as="geometry">
            <mxRectangle width="134" height="31" as="alternateBounds" />
          </mxGeometry>
        </mxCell>
        <mxCell id="kcfCH9ECL4U-9kLb-d-U-501" style="connectable=0;recursiveResize=0;strokeColor=inherit;fillColor=inherit;whiteSpace=wrap;html=1;" vertex="1" parent="kcfCH9ECL4U-9kLb-d-U-498">
          <mxGeometry x="196" width="123" height="31" as="geometry">
            <mxRectangle width="123" height="31" as="alternateBounds" />
          </mxGeometry>
        </mxCell>
        <mxCell id="kcfCH9ECL4U-9kLb-d-U-502" style="connectable=0;recursiveResize=0;strokeColor=inherit;fillColor=inherit;whiteSpace=wrap;html=1;" vertex="1" parent="kcfCH9ECL4U-9kLb-d-U-498">
          <mxGeometry x="319" width="124" height="31" as="geometry">
            <mxRectangle width="124" height="31" as="alternateBounds" />
          </mxGeometry>
        </mxCell>
        <mxCell id="kcfCH9ECL4U-9kLb-d-U-503" style="connectable=0;recursiveResize=0;strokeColor=inherit;fillColor=inherit;whiteSpace=wrap;html=1;" vertex="1" parent="kcfCH9ECL4U-9kLb-d-U-498">
          <mxGeometry x="443" width="123" height="31" as="geometry">
            <mxRectangle width="123" height="31" as="alternateBounds" />
          </mxGeometry>
        </mxCell>
        <mxCell id="kcfCH9ECL4U-9kLb-d-U-504" style="connectable=0;recursiveResize=0;strokeColor=inherit;fillColor=inherit;whiteSpace=wrap;html=1;" vertex="1" parent="kcfCH9ECL4U-9kLb-d-U-498">
          <mxGeometry x="566" width="124" height="31" as="geometry">
            <mxRectangle width="124" height="31" as="alternateBounds" />
          </mxGeometry>
        </mxCell>
        <mxCell id="kcfCH9ECL4U-9kLb-d-U-505" style="shape=tableRow;horizontal=0;startSize=0;swimlaneHead=0;swimlaneBody=0;top=0;left=0;bottom=0;right=0;dropTarget=0;collapsible=0;recursiveResize=0;expand=0;fontStyle=1;strokeColor=inherit;fillColor=#EAF2D3;" vertex="1" parent="kcfCH9ECL4U-9kLb-d-U-462">
          <mxGeometry y="191" width="690" height="31" as="geometry" />
        </mxCell>
        <mxCell id="kcfCH9ECL4U-9kLb-d-U-506" style="connectable=0;recursiveResize=0;strokeColor=inherit;fillColor=inherit;whiteSpace=wrap;html=1;" vertex="1" parent="kcfCH9ECL4U-9kLb-d-U-505">
          <mxGeometry width="62" height="31" as="geometry">
            <mxRectangle width="62" height="31" as="alternateBounds" />
          </mxGeometry>
        </mxCell>
        <mxCell id="kcfCH9ECL4U-9kLb-d-U-507" style="connectable=0;recursiveResize=0;strokeColor=inherit;fillColor=inherit;whiteSpace=wrap;html=1;" vertex="1" parent="kcfCH9ECL4U-9kLb-d-U-505">
          <mxGeometry x="62" width="134" height="31" as="geometry">
            <mxRectangle width="134" height="31" as="alternateBounds" />
          </mxGeometry>
        </mxCell>
        <mxCell id="kcfCH9ECL4U-9kLb-d-U-508" style="connectable=0;recursiveResize=0;strokeColor=inherit;fillColor=inherit;whiteSpace=wrap;html=1;" vertex="1" parent="kcfCH9ECL4U-9kLb-d-U-505">
          <mxGeometry x="196" width="123" height="31" as="geometry">
            <mxRectangle width="123" height="31" as="alternateBounds" />
          </mxGeometry>
        </mxCell>
        <mxCell id="kcfCH9ECL4U-9kLb-d-U-509" style="connectable=0;recursiveResize=0;strokeColor=inherit;fillColor=inherit;whiteSpace=wrap;html=1;" vertex="1" parent="kcfCH9ECL4U-9kLb-d-U-505">
          <mxGeometry x="319" width="124" height="31" as="geometry">
            <mxRectangle width="124" height="31" as="alternateBounds" />
          </mxGeometry>
        </mxCell>
        <mxCell id="kcfCH9ECL4U-9kLb-d-U-510" style="connectable=0;recursiveResize=0;strokeColor=inherit;fillColor=inherit;whiteSpace=wrap;html=1;" vertex="1" parent="kcfCH9ECL4U-9kLb-d-U-505">
          <mxGeometry x="443" width="123" height="31" as="geometry">
            <mxRectangle width="123" height="31" as="alternateBounds" />
          </mxGeometry>
        </mxCell>
        <mxCell id="kcfCH9ECL4U-9kLb-d-U-511" style="connectable=0;recursiveResize=0;strokeColor=inherit;fillColor=inherit;whiteSpace=wrap;html=1;" vertex="1" parent="kcfCH9ECL4U-9kLb-d-U-505">
          <mxGeometry x="566" width="124" height="31" as="geometry">
            <mxRectangle width="124" height="31" as="alternateBounds" />
          </mxGeometry>
        </mxCell>
        <mxCell id="kcfCH9ECL4U-9kLb-d-U-512" style="shape=tableRow;horizontal=0;startSize=0;swimlaneHead=0;swimlaneBody=0;top=0;left=0;bottom=0;right=0;dropTarget=0;collapsible=0;recursiveResize=0;expand=0;fontStyle=1;strokeColor=inherit;fillColor=#EAF2D3;" vertex="1" parent="kcfCH9ECL4U-9kLb-d-U-462">
          <mxGeometry y="222" width="690" height="31" as="geometry" />
        </mxCell>
        <mxCell id="kcfCH9ECL4U-9kLb-d-U-513" style="connectable=0;recursiveResize=0;strokeColor=inherit;fillColor=inherit;whiteSpace=wrap;html=1;" vertex="1" parent="kcfCH9ECL4U-9kLb-d-U-512">
          <mxGeometry width="62" height="31" as="geometry">
            <mxRectangle width="62" height="31" as="alternateBounds" />
          </mxGeometry>
        </mxCell>
        <mxCell id="kcfCH9ECL4U-9kLb-d-U-514" style="connectable=0;recursiveResize=0;strokeColor=inherit;fillColor=inherit;whiteSpace=wrap;html=1;" vertex="1" parent="kcfCH9ECL4U-9kLb-d-U-512">
          <mxGeometry x="62" width="134" height="31" as="geometry">
            <mxRectangle width="134" height="31" as="alternateBounds" />
          </mxGeometry>
        </mxCell>
        <mxCell id="kcfCH9ECL4U-9kLb-d-U-515" style="connectable=0;recursiveResize=0;strokeColor=inherit;fillColor=inherit;whiteSpace=wrap;html=1;" vertex="1" parent="kcfCH9ECL4U-9kLb-d-U-512">
          <mxGeometry x="196" width="123" height="31" as="geometry">
            <mxRectangle width="123" height="31" as="alternateBounds" />
          </mxGeometry>
        </mxCell>
        <mxCell id="kcfCH9ECL4U-9kLb-d-U-516" style="connectable=0;recursiveResize=0;strokeColor=inherit;fillColor=inherit;whiteSpace=wrap;html=1;" vertex="1" parent="kcfCH9ECL4U-9kLb-d-U-512">
          <mxGeometry x="319" width="124" height="31" as="geometry">
            <mxRectangle width="124" height="31" as="alternateBounds" />
          </mxGeometry>
        </mxCell>
        <mxCell id="kcfCH9ECL4U-9kLb-d-U-517" style="connectable=0;recursiveResize=0;strokeColor=inherit;fillColor=inherit;whiteSpace=wrap;html=1;" vertex="1" parent="kcfCH9ECL4U-9kLb-d-U-512">
          <mxGeometry x="443" width="123" height="31" as="geometry">
            <mxRectangle width="123" height="31" as="alternateBounds" />
          </mxGeometry>
        </mxCell>
        <mxCell id="kcfCH9ECL4U-9kLb-d-U-518" style="connectable=0;recursiveResize=0;strokeColor=inherit;fillColor=inherit;whiteSpace=wrap;html=1;" vertex="1" parent="kcfCH9ECL4U-9kLb-d-U-512">
          <mxGeometry x="566" width="124" height="31" as="geometry">
            <mxRectangle width="124" height="31" as="alternateBounds" />
          </mxGeometry>
        </mxCell>
        <mxCell id="zCx3nKabEPdlDjCJAVr0-15" value="Assets" style="childLayout=tableLayout;recursiveResize=0;strokeColor=#98bf21;fillColor=#A7C942;shadow=1;" vertex="1" parent="1">
          <mxGeometry x="30" y="360" width="670" height="346" as="geometry" />
        </mxCell>
        <mxCell id="zCx3nKabEPdlDjCJAVr0-16" style="shape=tableRow;horizontal=0;startSize=0;swimlaneHead=0;swimlaneBody=0;top=0;left=0;bottom=0;right=0;dropTarget=0;collapsible=0;recursiveResize=0;expand=0;fontStyle=0;strokeColor=inherit;fillColor=#ffffff;" vertex="1" parent="zCx3nKabEPdlDjCJAVr0-15">
          <mxGeometry width="670" height="33" as="geometry" />
        </mxCell>
        <mxCell id="zCx3nKabEPdlDjCJAVr0-17" value="Reviews" style="connectable=0;recursiveResize=0;strokeColor=inherit;fillColor=#A7C942;align=center;fontStyle=1;fontColor=#FFFFFF;html=1;" vertex="1" parent="zCx3nKabEPdlDjCJAVr0-16">
          <mxGeometry width="60" height="33" as="geometry">
            <mxRectangle width="60" height="33" as="alternateBounds" />
          </mxGeometry>
        </mxCell>
        <mxCell id="zCx3nKabEPdlDjCJAVr0-18" value="구분" style="connectable=0;recursiveResize=0;strokeColor=inherit;fillColor=#A7C942;align=center;fontStyle=1;fontColor=#FFFFFF;html=1;" vertex="1" parent="zCx3nKabEPdlDjCJAVr0-16">
          <mxGeometry x="60" width="130" height="33" as="geometry">
            <mxRectangle width="130" height="33" as="alternateBounds" />
          </mxGeometry>
        </mxCell>
        <mxCell id="zCx3nKabEPdlDjCJAVr0-19" value="Seq" style="connectable=0;recursiveResize=0;strokeColor=inherit;fillColor=#A7C942;align=center;fontStyle=1;fontColor=#FFFFFF;html=1;" vertex="1" parent="zCx3nKabEPdlDjCJAVr0-16">
          <mxGeometry x="190" width="120" height="33" as="geometry">
            <mxRectangle width="120" height="33" as="alternateBounds" />
          </mxGeometry>
        </mxCell>
        <mxCell id="zCx3nKabEPdlDjCJAVr0-20" value="Field Type" style="connectable=0;recursiveResize=0;strokeColor=inherit;fillColor=#A7C942;align=center;fontStyle=1;fontColor=#FFFFFF;html=1;" vertex="1" parent="zCx3nKabEPdlDjCJAVr0-16">
          <mxGeometry x="310" width="120" height="33" as="geometry">
            <mxRectangle width="120" height="33" as="alternateBounds" />
          </mxGeometry>
        </mxCell>
        <mxCell id="zCx3nKabEPdlDjCJAVr0-21" value="Constraint" style="connectable=0;recursiveResize=0;strokeColor=inherit;fillColor=#A7C942;align=center;fontStyle=1;fontColor=#FFFFFF;html=1;" vertex="1" parent="zCx3nKabEPdlDjCJAVr0-16">
          <mxGeometry x="430" width="120" height="33" as="geometry">
            <mxRectangle width="120" height="33" as="alternateBounds" />
          </mxGeometry>
        </mxCell>
        <mxCell id="zCx3nKabEPdlDjCJAVr0-22" value="NOT NULL" style="connectable=0;recursiveResize=0;strokeColor=inherit;fillColor=#A7C942;align=center;fontStyle=1;fontColor=#FFFFFF;html=1;" vertex="1" parent="zCx3nKabEPdlDjCJAVr0-16">
          <mxGeometry x="550" width="120" height="33" as="geometry">
            <mxRectangle width="120" height="33" as="alternateBounds" />
          </mxGeometry>
        </mxCell>
        <mxCell id="zCx3nKabEPdlDjCJAVr0-23" value="" style="shape=tableRow;horizontal=0;startSize=0;swimlaneHead=0;swimlaneBody=0;top=0;left=0;bottom=0;right=0;dropTarget=0;collapsible=0;recursiveResize=0;expand=0;fontStyle=0;strokeColor=inherit;fillColor=#ffffff;" vertex="1" parent="zCx3nKabEPdlDjCJAVr0-15">
          <mxGeometry y="33" width="670" height="32" as="geometry" />
        </mxCell>
        <mxCell id="zCx3nKabEPdlDjCJAVr0-24" value="PK" style="connectable=0;recursiveResize=0;strokeColor=inherit;fillColor=inherit;align=center;whiteSpace=wrap;html=1;" vertex="1" parent="zCx3nKabEPdlDjCJAVr0-23">
          <mxGeometry width="60" height="32" as="geometry">
            <mxRectangle width="60" height="32" as="alternateBounds" />
          </mxGeometry>
        </mxCell>
        <mxCell id="zCx3nKabEPdlDjCJAVr0-25" value="리뷰테이블 아이디" style="connectable=0;recursiveResize=0;strokeColor=inherit;fillColor=inherit;align=center;whiteSpace=wrap;html=1;" vertex="1" parent="zCx3nKabEPdlDjCJAVr0-23">
          <mxGeometry x="60" width="130" height="32" as="geometry">
            <mxRectangle width="130" height="32" as="alternateBounds" />
          </mxGeometry>
        </mxCell>
        <mxCell id="zCx3nKabEPdlDjCJAVr0-26" value="review_id" style="connectable=0;recursiveResize=0;strokeColor=inherit;fillColor=inherit;align=center;whiteSpace=wrap;html=1;" vertex="1" parent="zCx3nKabEPdlDjCJAVr0-23">
          <mxGeometry x="190" width="120" height="32" as="geometry">
            <mxRectangle width="120" height="32" as="alternateBounds" />
          </mxGeometry>
        </mxCell>
        <mxCell id="zCx3nKabEPdlDjCJAVr0-27" value="INT" style="connectable=0;recursiveResize=0;strokeColor=inherit;fillColor=inherit;align=center;whiteSpace=wrap;html=1;" vertex="1" parent="zCx3nKabEPdlDjCJAVr0-23">
          <mxGeometry x="310" width="120" height="32" as="geometry">
            <mxRectangle width="120" height="32" as="alternateBounds" />
          </mxGeometry>
        </mxCell>
        <mxCell id="zCx3nKabEPdlDjCJAVr0-28" style="connectable=0;recursiveResize=0;strokeColor=inherit;fillColor=inherit;align=center;whiteSpace=wrap;html=1;" vertex="1" parent="zCx3nKabEPdlDjCJAVr0-23">
          <mxGeometry x="430" width="120" height="32" as="geometry">
            <mxRectangle width="120" height="32" as="alternateBounds" />
          </mxGeometry>
        </mxCell>
        <mxCell id="zCx3nKabEPdlDjCJAVr0-29" style="connectable=0;recursiveResize=0;strokeColor=inherit;fillColor=inherit;align=center;whiteSpace=wrap;html=1;" vertex="1" parent="zCx3nKabEPdlDjCJAVr0-23">
          <mxGeometry x="550" width="120" height="32" as="geometry">
            <mxRectangle width="120" height="32" as="alternateBounds" />
          </mxGeometry>
        </mxCell>
        <mxCell id="zCx3nKabEPdlDjCJAVr0-37" value="" style="shape=tableRow;horizontal=0;startSize=0;swimlaneHead=0;swimlaneBody=0;top=0;left=0;bottom=0;right=0;dropTarget=0;collapsible=0;recursiveResize=0;expand=0;fontStyle=0;strokeColor=inherit;fillColor=#ffffff;" vertex="1" parent="zCx3nKabEPdlDjCJAVr0-15">
          <mxGeometry y="65" width="670" height="33" as="geometry" />
        </mxCell>
        <mxCell id="zCx3nKabEPdlDjCJAVr0-38" value="FK" style="connectable=0;recursiveResize=0;strokeColor=inherit;fillColor=inherit;fontStyle=0;align=center;whiteSpace=wrap;html=1;" vertex="1" parent="zCx3nKabEPdlDjCJAVr0-37">
          <mxGeometry width="60" height="33" as="geometry">
            <mxRectangle width="60" height="33" as="alternateBounds" />
          </mxGeometry>
        </mxCell>
        <mxCell id="zCx3nKabEPdlDjCJAVr0-39" value="유저&lt;span style=&quot;background-color: initial;&quot;&gt;테이블 아이디&lt;/span&gt;" style="connectable=0;recursiveResize=0;strokeColor=inherit;fillColor=inherit;fontStyle=0;align=center;whiteSpace=wrap;html=1;" vertex="1" parent="zCx3nKabEPdlDjCJAVr0-37">
          <mxGeometry x="60" width="130" height="33" as="geometry">
            <mxRectangle width="130" height="33" as="alternateBounds" />
          </mxGeometry>
        </mxCell>
        <mxCell id="zCx3nKabEPdlDjCJAVr0-40" value="user_id" style="connectable=0;recursiveResize=0;strokeColor=inherit;fillColor=inherit;fontStyle=0;align=center;whiteSpace=wrap;html=1;" vertex="1" parent="zCx3nKabEPdlDjCJAVr0-37">
          <mxGeometry x="190" width="120" height="33" as="geometry">
            <mxRectangle width="120" height="33" as="alternateBounds" />
          </mxGeometry>
        </mxCell>
        <mxCell id="zCx3nKabEPdlDjCJAVr0-41" value="INT" style="connectable=0;recursiveResize=0;strokeColor=inherit;fillColor=inherit;fontStyle=0;align=center;whiteSpace=wrap;html=1;" vertex="1" parent="zCx3nKabEPdlDjCJAVr0-37">
          <mxGeometry x="310" width="120" height="33" as="geometry">
            <mxRectangle width="120" height="33" as="alternateBounds" />
          </mxGeometry>
        </mxCell>
        <mxCell id="zCx3nKabEPdlDjCJAVr0-42" style="connectable=0;recursiveResize=0;strokeColor=inherit;fillColor=inherit;fontStyle=0;align=center;whiteSpace=wrap;html=1;" vertex="1" parent="zCx3nKabEPdlDjCJAVr0-37">
          <mxGeometry x="430" width="120" height="33" as="geometry">
            <mxRectangle width="120" height="33" as="alternateBounds" />
          </mxGeometry>
        </mxCell>
        <mxCell id="zCx3nKabEPdlDjCJAVr0-43" style="connectable=0;recursiveResize=0;strokeColor=inherit;fillColor=inherit;fontStyle=0;align=center;whiteSpace=wrap;html=1;" vertex="1" parent="zCx3nKabEPdlDjCJAVr0-37">
          <mxGeometry x="550" width="120" height="33" as="geometry">
            <mxRectangle width="120" height="33" as="alternateBounds" />
          </mxGeometry>
        </mxCell>
        <mxCell id="zCx3nKabEPdlDjCJAVr0-79" style="shape=tableRow;horizontal=0;startSize=0;swimlaneHead=0;swimlaneBody=0;top=0;left=0;bottom=0;right=0;dropTarget=0;collapsible=0;recursiveResize=0;expand=0;fontStyle=1;strokeColor=inherit;fillColor=#EAF2D3;" vertex="1" parent="zCx3nKabEPdlDjCJAVr0-15">
          <mxGeometry y="98" width="670" height="31" as="geometry" />
        </mxCell>
        <mxCell id="zCx3nKabEPdlDjCJAVr0-80" value="FK" style="connectable=0;recursiveResize=0;strokeColor=inherit;fillColor=inherit;whiteSpace=wrap;html=1;" vertex="1" parent="zCx3nKabEPdlDjCJAVr0-79">
          <mxGeometry width="60" height="31" as="geometry">
            <mxRectangle width="60" height="31" as="alternateBounds" />
          </mxGeometry>
        </mxCell>
        <mxCell id="zCx3nKabEPdlDjCJAVr0-81" value="위치테이블 아이디" style="connectable=0;recursiveResize=0;strokeColor=inherit;fillColor=inherit;whiteSpace=wrap;html=1;" vertex="1" parent="zCx3nKabEPdlDjCJAVr0-79">
          <mxGeometry x="60" width="130" height="31" as="geometry">
            <mxRectangle width="130" height="31" as="alternateBounds" />
          </mxGeometry>
        </mxCell>
        <mxCell id="zCx3nKabEPdlDjCJAVr0-82" value="location_id" style="connectable=0;recursiveResize=0;strokeColor=inherit;fillColor=inherit;whiteSpace=wrap;html=1;" vertex="1" parent="zCx3nKabEPdlDjCJAVr0-79">
          <mxGeometry x="190" width="120" height="31" as="geometry">
            <mxRectangle width="120" height="31" as="alternateBounds" />
          </mxGeometry>
        </mxCell>
        <mxCell id="zCx3nKabEPdlDjCJAVr0-83" value="INT" style="connectable=0;recursiveResize=0;strokeColor=inherit;fillColor=inherit;whiteSpace=wrap;html=1;" vertex="1" parent="zCx3nKabEPdlDjCJAVr0-79">
          <mxGeometry x="310" width="120" height="31" as="geometry">
            <mxRectangle width="120" height="31" as="alternateBounds" />
          </mxGeometry>
        </mxCell>
        <mxCell id="zCx3nKabEPdlDjCJAVr0-84" style="connectable=0;recursiveResize=0;strokeColor=inherit;fillColor=inherit;whiteSpace=wrap;html=1;" vertex="1" parent="zCx3nKabEPdlDjCJAVr0-79">
          <mxGeometry x="430" width="120" height="31" as="geometry">
            <mxRectangle width="120" height="31" as="alternateBounds" />
          </mxGeometry>
        </mxCell>
        <mxCell id="zCx3nKabEPdlDjCJAVr0-85" style="connectable=0;recursiveResize=0;strokeColor=inherit;fillColor=inherit;whiteSpace=wrap;html=1;" vertex="1" parent="zCx3nKabEPdlDjCJAVr0-79">
          <mxGeometry x="550" width="120" height="31" as="geometry">
            <mxRectangle width="120" height="31" as="alternateBounds" />
          </mxGeometry>
        </mxCell>
        <mxCell id="zCx3nKabEPdlDjCJAVr0-30" value="" style="shape=tableRow;horizontal=0;startSize=0;swimlaneHead=0;swimlaneBody=0;top=0;left=0;bottom=0;right=0;dropTarget=0;collapsible=0;recursiveResize=0;expand=0;fontStyle=1;strokeColor=inherit;fillColor=#EAF2D3;" vertex="1" parent="zCx3nKabEPdlDjCJAVr0-15">
          <mxGeometry y="129" width="670" height="31" as="geometry" />
        </mxCell>
        <mxCell id="zCx3nKabEPdlDjCJAVr0-31" value="FK" style="connectable=0;recursiveResize=0;strokeColor=inherit;fillColor=inherit;whiteSpace=wrap;html=1;" vertex="1" parent="zCx3nKabEPdlDjCJAVr0-30">
          <mxGeometry width="60" height="31" as="geometry">
            <mxRectangle width="60" height="31" as="alternateBounds" />
          </mxGeometry>
        </mxCell>
        <mxCell id="zCx3nKabEPdlDjCJAVr0-32" value="가게테이블 아이디" style="connectable=0;recursiveResize=0;strokeColor=inherit;fillColor=inherit;whiteSpace=wrap;html=1;" vertex="1" parent="zCx3nKabEPdlDjCJAVr0-30">
          <mxGeometry x="60" width="130" height="31" as="geometry">
            <mxRectangle width="130" height="31" as="alternateBounds" />
          </mxGeometry>
        </mxCell>
        <mxCell id="zCx3nKabEPdlDjCJAVr0-33" value="store_id" style="connectable=0;recursiveResize=0;strokeColor=inherit;fillColor=inherit;whiteSpace=wrap;html=1;" vertex="1" parent="zCx3nKabEPdlDjCJAVr0-30">
          <mxGeometry x="190" width="120" height="31" as="geometry">
            <mxRectangle width="120" height="31" as="alternateBounds" />
          </mxGeometry>
        </mxCell>
        <mxCell id="zCx3nKabEPdlDjCJAVr0-34" value="INT" style="connectable=0;recursiveResize=0;strokeColor=inherit;fillColor=inherit;whiteSpace=wrap;html=1;" vertex="1" parent="zCx3nKabEPdlDjCJAVr0-30">
          <mxGeometry x="310" width="120" height="31" as="geometry">
            <mxRectangle width="120" height="31" as="alternateBounds" />
          </mxGeometry>
        </mxCell>
        <mxCell id="zCx3nKabEPdlDjCJAVr0-35" style="connectable=0;recursiveResize=0;strokeColor=inherit;fillColor=inherit;whiteSpace=wrap;html=1;" vertex="1" parent="zCx3nKabEPdlDjCJAVr0-30">
          <mxGeometry x="430" width="120" height="31" as="geometry">
            <mxRectangle width="120" height="31" as="alternateBounds" />
          </mxGeometry>
        </mxCell>
        <mxCell id="zCx3nKabEPdlDjCJAVr0-36" style="connectable=0;recursiveResize=0;strokeColor=inherit;fillColor=inherit;whiteSpace=wrap;html=1;" vertex="1" parent="zCx3nKabEPdlDjCJAVr0-30">
          <mxGeometry x="550" width="120" height="31" as="geometry">
            <mxRectangle width="120" height="31" as="alternateBounds" />
          </mxGeometry>
        </mxCell>
        <mxCell id="zCx3nKabEPdlDjCJAVr0-44" value="" style="shape=tableRow;horizontal=0;startSize=0;swimlaneHead=0;swimlaneBody=0;top=0;left=0;bottom=0;right=0;dropTarget=0;collapsible=0;recursiveResize=0;expand=0;fontStyle=1;strokeColor=inherit;fillColor=#EAF2D3;" vertex="1" parent="zCx3nKabEPdlDjCJAVr0-15">
          <mxGeometry y="160" width="670" height="31" as="geometry" />
        </mxCell>
        <mxCell id="zCx3nKabEPdlDjCJAVr0-45" value="" style="connectable=0;recursiveResize=0;strokeColor=inherit;fillColor=inherit;whiteSpace=wrap;html=1;" vertex="1" parent="zCx3nKabEPdlDjCJAVr0-44">
          <mxGeometry width="60" height="31" as="geometry">
            <mxRectangle width="60" height="31" as="alternateBounds" />
          </mxGeometry>
        </mxCell>
        <mxCell id="zCx3nKabEPdlDjCJAVr0-46" value="이미지" style="connectable=0;recursiveResize=0;strokeColor=inherit;fillColor=inherit;whiteSpace=wrap;html=1;" vertex="1" parent="zCx3nKabEPdlDjCJAVr0-44">
          <mxGeometry x="60" width="130" height="31" as="geometry">
            <mxRectangle width="130" height="31" as="alternateBounds" />
          </mxGeometry>
        </mxCell>
        <mxCell id="zCx3nKabEPdlDjCJAVr0-47" value="image" style="connectable=0;recursiveResize=0;strokeColor=inherit;fillColor=inherit;whiteSpace=wrap;html=1;" vertex="1" parent="zCx3nKabEPdlDjCJAVr0-44">
          <mxGeometry x="190" width="120" height="31" as="geometry">
            <mxRectangle width="120" height="31" as="alternateBounds" />
          </mxGeometry>
        </mxCell>
        <mxCell id="zCx3nKabEPdlDjCJAVr0-48" value="Image" style="connectable=0;recursiveResize=0;strokeColor=inherit;fillColor=inherit;whiteSpace=wrap;html=1;" vertex="1" parent="zCx3nKabEPdlDjCJAVr0-44">
          <mxGeometry x="310" width="120" height="31" as="geometry">
            <mxRectangle width="120" height="31" as="alternateBounds" />
          </mxGeometry>
        </mxCell>
        <mxCell id="zCx3nKabEPdlDjCJAVr0-49" style="connectable=0;recursiveResize=0;strokeColor=inherit;fillColor=inherit;whiteSpace=wrap;html=1;" vertex="1" parent="zCx3nKabEPdlDjCJAVr0-44">
          <mxGeometry x="430" width="120" height="31" as="geometry">
            <mxRectangle width="120" height="31" as="alternateBounds" />
          </mxGeometry>
        </mxCell>
        <mxCell id="zCx3nKabEPdlDjCJAVr0-50" style="connectable=0;recursiveResize=0;strokeColor=inherit;fillColor=inherit;whiteSpace=wrap;html=1;" vertex="1" parent="zCx3nKabEPdlDjCJAVr0-44">
          <mxGeometry x="550" width="120" height="31" as="geometry">
            <mxRectangle width="120" height="31" as="alternateBounds" />
          </mxGeometry>
        </mxCell>
        <mxCell id="zCx3nKabEPdlDjCJAVr0-51" style="shape=tableRow;horizontal=0;startSize=0;swimlaneHead=0;swimlaneBody=0;top=0;left=0;bottom=0;right=0;dropTarget=0;collapsible=0;recursiveResize=0;expand=0;fontStyle=1;strokeColor=inherit;fillColor=#EAF2D3;" vertex="1" parent="zCx3nKabEPdlDjCJAVr0-15">
          <mxGeometry y="191" width="670" height="31" as="geometry" />
        </mxCell>
        <mxCell id="zCx3nKabEPdlDjCJAVr0-52" style="connectable=0;recursiveResize=0;strokeColor=inherit;fillColor=inherit;whiteSpace=wrap;html=1;" vertex="1" parent="zCx3nKabEPdlDjCJAVr0-51">
          <mxGeometry width="60" height="31" as="geometry">
            <mxRectangle width="60" height="31" as="alternateBounds" />
          </mxGeometry>
        </mxCell>
        <mxCell id="zCx3nKabEPdlDjCJAVr0-53" value="리뷰점수" style="connectable=0;recursiveResize=0;strokeColor=inherit;fillColor=inherit;whiteSpace=wrap;html=1;" vertex="1" parent="zCx3nKabEPdlDjCJAVr0-51">
          <mxGeometry x="60" width="130" height="31" as="geometry">
            <mxRectangle width="130" height="31" as="alternateBounds" />
          </mxGeometry>
        </mxCell>
        <mxCell id="zCx3nKabEPdlDjCJAVr0-54" value="point" style="connectable=0;recursiveResize=0;strokeColor=inherit;fillColor=inherit;whiteSpace=wrap;html=1;" vertex="1" parent="zCx3nKabEPdlDjCJAVr0-51">
          <mxGeometry x="190" width="120" height="31" as="geometry">
            <mxRectangle width="120" height="31" as="alternateBounds" />
          </mxGeometry>
        </mxCell>
        <mxCell id="zCx3nKabEPdlDjCJAVr0-55" value="INT" style="connectable=0;recursiveResize=0;strokeColor=inherit;fillColor=inherit;whiteSpace=wrap;html=1;" vertex="1" parent="zCx3nKabEPdlDjCJAVr0-51">
          <mxGeometry x="310" width="120" height="31" as="geometry">
            <mxRectangle width="120" height="31" as="alternateBounds" />
          </mxGeometry>
        </mxCell>
        <mxCell id="zCx3nKabEPdlDjCJAVr0-56" style="connectable=0;recursiveResize=0;strokeColor=inherit;fillColor=inherit;whiteSpace=wrap;html=1;" vertex="1" parent="zCx3nKabEPdlDjCJAVr0-51">
          <mxGeometry x="430" width="120" height="31" as="geometry">
            <mxRectangle width="120" height="31" as="alternateBounds" />
          </mxGeometry>
        </mxCell>
        <mxCell id="zCx3nKabEPdlDjCJAVr0-57" style="connectable=0;recursiveResize=0;strokeColor=inherit;fillColor=inherit;whiteSpace=wrap;html=1;" vertex="1" parent="zCx3nKabEPdlDjCJAVr0-51">
          <mxGeometry x="550" width="120" height="31" as="geometry">
            <mxRectangle width="120" height="31" as="alternateBounds" />
          </mxGeometry>
        </mxCell>
        <mxCell id="zCx3nKabEPdlDjCJAVr0-86" style="shape=tableRow;horizontal=0;startSize=0;swimlaneHead=0;swimlaneBody=0;top=0;left=0;bottom=0;right=0;dropTarget=0;collapsible=0;recursiveResize=0;expand=0;fontStyle=1;strokeColor=inherit;fillColor=#EAF2D3;" vertex="1" parent="zCx3nKabEPdlDjCJAVr0-15">
          <mxGeometry y="222" width="670" height="31" as="geometry" />
        </mxCell>
        <mxCell id="zCx3nKabEPdlDjCJAVr0-87" style="connectable=0;recursiveResize=0;strokeColor=inherit;fillColor=inherit;whiteSpace=wrap;html=1;" vertex="1" parent="zCx3nKabEPdlDjCJAVr0-86">
          <mxGeometry width="60" height="31" as="geometry">
            <mxRectangle width="60" height="31" as="alternateBounds" />
          </mxGeometry>
        </mxCell>
        <mxCell id="zCx3nKabEPdlDjCJAVr0-88" value="리뷰내용" style="connectable=0;recursiveResize=0;strokeColor=inherit;fillColor=inherit;whiteSpace=wrap;html=1;" vertex="1" parent="zCx3nKabEPdlDjCJAVr0-86">
          <mxGeometry x="60" width="130" height="31" as="geometry">
            <mxRectangle width="130" height="31" as="alternateBounds" />
          </mxGeometry>
        </mxCell>
        <mxCell id="zCx3nKabEPdlDjCJAVr0-89" value="content" style="connectable=0;recursiveResize=0;strokeColor=inherit;fillColor=inherit;whiteSpace=wrap;html=1;" vertex="1" parent="zCx3nKabEPdlDjCJAVr0-86">
          <mxGeometry x="190" width="120" height="31" as="geometry">
            <mxRectangle width="120" height="31" as="alternateBounds" />
          </mxGeometry>
        </mxCell>
        <mxCell id="zCx3nKabEPdlDjCJAVr0-90" value="TextField" style="connectable=0;recursiveResize=0;strokeColor=inherit;fillColor=inherit;whiteSpace=wrap;html=1;" vertex="1" parent="zCx3nKabEPdlDjCJAVr0-86">
          <mxGeometry x="310" width="120" height="31" as="geometry">
            <mxRectangle width="120" height="31" as="alternateBounds" />
          </mxGeometry>
        </mxCell>
        <mxCell id="zCx3nKabEPdlDjCJAVr0-91" style="connectable=0;recursiveResize=0;strokeColor=inherit;fillColor=inherit;whiteSpace=wrap;html=1;" vertex="1" parent="zCx3nKabEPdlDjCJAVr0-86">
          <mxGeometry x="430" width="120" height="31" as="geometry">
            <mxRectangle width="120" height="31" as="alternateBounds" />
          </mxGeometry>
        </mxCell>
        <mxCell id="zCx3nKabEPdlDjCJAVr0-92" style="connectable=0;recursiveResize=0;strokeColor=inherit;fillColor=inherit;whiteSpace=wrap;html=1;" vertex="1" parent="zCx3nKabEPdlDjCJAVr0-86">
          <mxGeometry x="550" width="120" height="31" as="geometry">
            <mxRectangle width="120" height="31" as="alternateBounds" />
          </mxGeometry>
        </mxCell>
        <mxCell id="zCx3nKabEPdlDjCJAVr0-58" style="shape=tableRow;horizontal=0;startSize=0;swimlaneHead=0;swimlaneBody=0;top=0;left=0;bottom=0;right=0;dropTarget=0;collapsible=0;recursiveResize=0;expand=0;fontStyle=1;strokeColor=inherit;fillColor=#EAF2D3;" vertex="1" parent="zCx3nKabEPdlDjCJAVr0-15">
          <mxGeometry y="253" width="670" height="31" as="geometry" />
        </mxCell>
        <mxCell id="zCx3nKabEPdlDjCJAVr0-59" style="connectable=0;recursiveResize=0;strokeColor=inherit;fillColor=inherit;whiteSpace=wrap;html=1;" vertex="1" parent="zCx3nKabEPdlDjCJAVr0-58">
          <mxGeometry width="60" height="31" as="geometry">
            <mxRectangle width="60" height="31" as="alternateBounds" />
          </mxGeometry>
        </mxCell>
        <mxCell id="zCx3nKabEPdlDjCJAVr0-60" value="음식종류" style="connectable=0;recursiveResize=0;strokeColor=inherit;fillColor=inherit;whiteSpace=wrap;html=1;" vertex="1" parent="zCx3nKabEPdlDjCJAVr0-58">
          <mxGeometry x="60" width="130" height="31" as="geometry">
            <mxRectangle width="130" height="31" as="alternateBounds" />
          </mxGeometry>
        </mxCell>
        <mxCell id="zCx3nKabEPdlDjCJAVr0-61" value="cuisine_type" style="connectable=0;recursiveResize=0;strokeColor=inherit;fillColor=inherit;whiteSpace=wrap;html=1;" vertex="1" parent="zCx3nKabEPdlDjCJAVr0-58">
          <mxGeometry x="190" width="120" height="31" as="geometry">
            <mxRectangle width="120" height="31" as="alternateBounds" />
          </mxGeometry>
        </mxCell>
        <mxCell id="zCx3nKabEPdlDjCJAVr0-62" value="TextField" style="connectable=0;recursiveResize=0;strokeColor=inherit;fillColor=inherit;whiteSpace=wrap;html=1;" vertex="1" parent="zCx3nKabEPdlDjCJAVr0-58">
          <mxGeometry x="310" width="120" height="31" as="geometry">
            <mxRectangle width="120" height="31" as="alternateBounds" />
          </mxGeometry>
        </mxCell>
        <mxCell id="zCx3nKabEPdlDjCJAVr0-63" style="connectable=0;recursiveResize=0;strokeColor=inherit;fillColor=inherit;whiteSpace=wrap;html=1;" vertex="1" parent="zCx3nKabEPdlDjCJAVr0-58">
          <mxGeometry x="430" width="120" height="31" as="geometry">
            <mxRectangle width="120" height="31" as="alternateBounds" />
          </mxGeometry>
        </mxCell>
        <mxCell id="zCx3nKabEPdlDjCJAVr0-64" style="connectable=0;recursiveResize=0;strokeColor=inherit;fillColor=inherit;whiteSpace=wrap;html=1;" vertex="1" parent="zCx3nKabEPdlDjCJAVr0-58">
          <mxGeometry x="550" width="120" height="31" as="geometry">
            <mxRectangle width="120" height="31" as="alternateBounds" />
          </mxGeometry>
        </mxCell>
        <mxCell id="zCx3nKabEPdlDjCJAVr0-65" style="shape=tableRow;horizontal=0;startSize=0;swimlaneHead=0;swimlaneBody=0;top=0;left=0;bottom=0;right=0;dropTarget=0;collapsible=0;recursiveResize=0;expand=0;fontStyle=1;strokeColor=inherit;fillColor=#EAF2D3;" vertex="1" parent="zCx3nKabEPdlDjCJAVr0-15">
          <mxGeometry y="284" width="670" height="31" as="geometry" />
        </mxCell>
        <mxCell id="zCx3nKabEPdlDjCJAVr0-66" style="connectable=0;recursiveResize=0;strokeColor=inherit;fillColor=inherit;whiteSpace=wrap;html=1;" vertex="1" parent="zCx3nKabEPdlDjCJAVr0-65">
          <mxGeometry width="60" height="31" as="geometry">
            <mxRectangle width="60" height="31" as="alternateBounds" />
          </mxGeometry>
        </mxCell>
        <mxCell id="zCx3nKabEPdlDjCJAVr0-67" value="리뷰 등록 일자" style="connectable=0;recursiveResize=0;strokeColor=inherit;fillColor=inherit;whiteSpace=wrap;html=1;" vertex="1" parent="zCx3nKabEPdlDjCJAVr0-65">
          <mxGeometry x="60" width="130" height="31" as="geometry">
            <mxRectangle width="130" height="31" as="alternateBounds" />
          </mxGeometry>
        </mxCell>
        <mxCell id="zCx3nKabEPdlDjCJAVr0-68" value="created" style="connectable=0;recursiveResize=0;strokeColor=inherit;fillColor=inherit;whiteSpace=wrap;html=1;" vertex="1" parent="zCx3nKabEPdlDjCJAVr0-65">
          <mxGeometry x="190" width="120" height="31" as="geometry">
            <mxRectangle width="120" height="31" as="alternateBounds" />
          </mxGeometry>
        </mxCell>
        <mxCell id="zCx3nKabEPdlDjCJAVr0-69" value="Datetime" style="connectable=0;recursiveResize=0;strokeColor=inherit;fillColor=inherit;whiteSpace=wrap;html=1;" vertex="1" parent="zCx3nKabEPdlDjCJAVr0-65">
          <mxGeometry x="310" width="120" height="31" as="geometry">
            <mxRectangle width="120" height="31" as="alternateBounds" />
          </mxGeometry>
        </mxCell>
        <mxCell id="zCx3nKabEPdlDjCJAVr0-70" style="connectable=0;recursiveResize=0;strokeColor=inherit;fillColor=inherit;whiteSpace=wrap;html=1;" vertex="1" parent="zCx3nKabEPdlDjCJAVr0-65">
          <mxGeometry x="430" width="120" height="31" as="geometry">
            <mxRectangle width="120" height="31" as="alternateBounds" />
          </mxGeometry>
        </mxCell>
        <mxCell id="zCx3nKabEPdlDjCJAVr0-71" style="connectable=0;recursiveResize=0;strokeColor=inherit;fillColor=inherit;whiteSpace=wrap;html=1;" vertex="1" parent="zCx3nKabEPdlDjCJAVr0-65">
          <mxGeometry x="550" width="120" height="31" as="geometry">
            <mxRectangle width="120" height="31" as="alternateBounds" />
          </mxGeometry>
        </mxCell>
        <mxCell id="zCx3nKabEPdlDjCJAVr0-72" style="shape=tableRow;horizontal=0;startSize=0;swimlaneHead=0;swimlaneBody=0;top=0;left=0;bottom=0;right=0;dropTarget=0;collapsible=0;recursiveResize=0;expand=0;fontStyle=1;strokeColor=inherit;fillColor=#EAF2D3;" vertex="1" parent="zCx3nKabEPdlDjCJAVr0-15">
          <mxGeometry y="315" width="670" height="31" as="geometry" />
        </mxCell>
        <mxCell id="zCx3nKabEPdlDjCJAVr0-73" style="connectable=0;recursiveResize=0;strokeColor=inherit;fillColor=inherit;whiteSpace=wrap;html=1;" vertex="1" parent="zCx3nKabEPdlDjCJAVr0-72">
          <mxGeometry width="60" height="31" as="geometry">
            <mxRectangle width="60" height="31" as="alternateBounds" />
          </mxGeometry>
        </mxCell>
        <mxCell id="zCx3nKabEPdlDjCJAVr0-74" value="리뷰 수정 일자" style="connectable=0;recursiveResize=0;strokeColor=inherit;fillColor=inherit;whiteSpace=wrap;html=1;" vertex="1" parent="zCx3nKabEPdlDjCJAVr0-72">
          <mxGeometry x="60" width="130" height="31" as="geometry">
            <mxRectangle width="130" height="31" as="alternateBounds" />
          </mxGeometry>
        </mxCell>
        <mxCell id="zCx3nKabEPdlDjCJAVr0-75" value="updated" style="connectable=0;recursiveResize=0;strokeColor=inherit;fillColor=inherit;whiteSpace=wrap;html=1;" vertex="1" parent="zCx3nKabEPdlDjCJAVr0-72">
          <mxGeometry x="190" width="120" height="31" as="geometry">
            <mxRectangle width="120" height="31" as="alternateBounds" />
          </mxGeometry>
        </mxCell>
        <mxCell id="zCx3nKabEPdlDjCJAVr0-76" value="Datetime" style="connectable=0;recursiveResize=0;strokeColor=inherit;fillColor=inherit;whiteSpace=wrap;html=1;" vertex="1" parent="zCx3nKabEPdlDjCJAVr0-72">
          <mxGeometry x="310" width="120" height="31" as="geometry">
            <mxRectangle width="120" height="31" as="alternateBounds" />
          </mxGeometry>
        </mxCell>
        <mxCell id="zCx3nKabEPdlDjCJAVr0-77" style="connectable=0;recursiveResize=0;strokeColor=inherit;fillColor=inherit;whiteSpace=wrap;html=1;" vertex="1" parent="zCx3nKabEPdlDjCJAVr0-72">
          <mxGeometry x="430" width="120" height="31" as="geometry">
            <mxRectangle width="120" height="31" as="alternateBounds" />
          </mxGeometry>
        </mxCell>
        <mxCell id="zCx3nKabEPdlDjCJAVr0-78" style="connectable=0;recursiveResize=0;strokeColor=inherit;fillColor=inherit;whiteSpace=wrap;html=1;" vertex="1" parent="zCx3nKabEPdlDjCJAVr0-72">
          <mxGeometry x="550" width="120" height="31" as="geometry">
            <mxRectangle width="120" height="31" as="alternateBounds" />
          </mxGeometry>
        </mxCell>
      </root>
    </mxGraphModel>
  </diagram>
</mxfile>
